<?xml version="1.0" encoding="UTF-8" standalone="no"?>
<!-- Created with Inkscape (http://www.inkscape.org/) -->

<svg
   width="2.5in"
   height="3.5in"
   viewBox="0 0 63.500001 88.899998"
   version="1.1"
   id="svg1"
   xml:space="preserve"
   inkscape:version="1.4.3 (0d15f75, 2025-12-25)"
   sodipodi:docname="Authentication Card.svg"
   xmlns:inkscape="http://www.inkscape.org/namespaces/inkscape"
   xmlns:sodipodi="http://sodipodi.sourceforge.net/DTD/sodipodi-0.dtd"
   xmlns="http://www.w3.org/2000/svg"
   xmlns:svg="http://www.w3.org/2000/svg"><sodipodi:namedview
     id="namedview1"
     pagecolor="#ffffff"
     bordercolor="#000000"
     borderopacity="0.25"
     inkscape:showpageshadow="2"
     inkscape:pageopacity="0.0"
     inkscape:pagecheckerboard="0"
     inkscape:deskcolor="#d1d1d1"
     inkscape:document-units="in"
     inkscape:zoom="5.6568543"
     inkscape:cx="99.613667"
     inkscape:cy="9.0156114"
     inkscape:window-width="2530"
     inkscape:window-height="1360"
     inkscape:window-x="0"
     inkscape:window-y="0"
     inkscape:window-maximized="0"
     inkscape:current-layer="layer1"
     showgrid="true"><inkscape:grid
       id="grid22"
       units="in"
       originx="0"
       originy="0"
       spacingx="25.4"
       spacingy="25.399999"
       empcolor="#0099e5"
       empopacity="0.30196078"
       color="#0099e5"
       opacity="0.14901961"
       empspacing="5"
       enabled="true"
       visible="true" /></sodipodi:namedview><defs
     id="defs1"><inkscape:path-effect
       effect="powerstroke"
       message=""
       id="path-effect31"
       is_visible="true"
       lpeversion="1.3"
       scale_width="1.8"
       interpolator_type="CentripetalCatmullRom"
       interpolator_beta="0.2"
       start_linecap_type="zerowidth"
       end_linecap_type="zerowidth"
       offset_points="0.2,0.12388 | 1,0.12388 | 1.8,0.12388"
       linejoin_type="round"
       miter_limit="4"
       not_jump="false"
       sort_points="true" /><inkscape:path-effect
       effect="fill_between_many"
       method="bsplinespiro"
       autoreverse="false"
       close="false"
       join="false"
       linkedpaths="#path22,0,1"
       id="path-effect32" /></defs><g
     inkscape:label="Layer 1"
     inkscape:groupmode="layer"
     id="layer1"><g
       id="g2"
       transform="scale(28.222222,80.81818)"><rect
         style="fill:#f4e3d7;fill-opacity:1;stroke:#000000;stroke-width:0;stroke-linecap:square;stroke-dasharray:none"
         id="rect1"
         width="2.25"
         height="1.1"
         x="0"
         y="0" /></g><g
       id="layer1-4"
       transform="matrix(0.32828429,0,0,0.35459537,-1.1152225,-28.018487)"><path
         style="fill:#08121a;stroke-width:0.665722"
         d="m 24.433454,150.73709 c -0.225305,-0.11606 -0.382844,-0.41649 -0.364804,-0.69583 0.01627,-0.25196 0.168488,-0.49864 0.944479,-1.53061 1.921892,-2.55586 2.405419,-3.20175 3.261915,-4.35736 0.527007,-0.71101 1.26477,-1.70484 1.63947,-2.20841 2.416799,-3.24799 3.820659,-5.15555 4.937245,-6.70866 0.721419,-1.0035 0.981848,-1.36353 1.433525,-1.98187 0.495454,-0.67826 0.502804,-0.65526 -0.178537,-0.55795 -0.235214,0.0338 -0.555665,0.0754 -0.712142,0.0929 -0.156497,0.0178 -0.656675,0.0869 -1.111571,0.1545 -1.16378,0.17281 -1.422941,0.17292 -1.664544,7.8e-4 -0.258254,-0.18395 -0.360643,-0.43032 -0.305794,-0.73576 0.0514,-0.28616 0.169853,-0.45689 0.442759,-0.63815 0.164854,-0.10949 0.48163,-0.17487 1.761894,-0.36374 0.858499,-0.12665 1.972893,-0.31112 2.47643,-0.4099 0.503526,-0.0987 0.980182,-0.18601 1.059217,-0.19386 0.153559,-0.0153 0.130637,0.0146 1.164721,-1.43524 0.317904,-0.44521 0.801138,-1.11251 1.073876,-1.48298 0.272739,-0.37041 0.664153,-0.90396 0.869816,-1.1856 1.557635,-2.13314 3.988068,-5.38321 4.90786,-6.56299 0.15241,-0.19545 0.69658,-0.91248 1.209264,-1.59345 1.220084,-1.62047 1.416656,-1.79935 1.939308,-1.7651 0.202867,0.0133 0.290964,0.0534 0.438057,0.20096 0.378302,0.37875 0.344997,0.67007 -0.159978,1.39879 -0.354265,0.51125 -1.288506,1.81949 -1.753276,2.45515 -0.195081,0.26676 -0.727381,1.0072 -1.182864,1.64523 -0.455486,0.6381 -1.057468,1.47556 -1.337737,1.861 -0.740059,1.01793 -1.40631,1.94863 -1.989019,2.77857 -0.281504,0.40095 -0.852026,1.21256 -1.267818,1.80358 -0.415796,0.591 -0.748634,1.08292 -0.739628,1.09319 0.06448,0.0736 3.114256,-0.8014 4.698224,-1.34778 1.963057,-0.67722 4.648804,-1.7399 6.065927,-2.40014 3.28116,-1.52869 5.231102,-2.59003 7.918752,-4.31037 3.905196,-2.49955 6.834606,-4.9289 8.434429,-6.99454 1.386251,-1.78996 1.864126,-3.27678 1.425453,-4.43522 -0.320651,-0.84669 -1.387797,-1.54269 -2.9273,-1.90923 -1.320383,-0.31437 -2.12984,-0.40303 -3.511141,-0.38462 -1.619482,0.0216 -2.810203,0.1463 -4.540921,0.47544 -0.503339,0.0957 -1.069247,0.19819 -1.257575,0.22769 -0.387636,0.0608 -2.349015,0.54818 -2.693863,0.66949 -0.124504,0.0437 -0.602143,0.19327 -1.0614,0.33213 -3.145809,0.95117 -8.575471,3.20743 -11.710638,4.8662 -0.257458,0.13624 -0.72102,0.37776 -1.030125,0.53673 -0.939436,0.4831 -3.38231,1.87114 -4.000792,2.27326 -0.202052,0.13133 -0.499115,0.31631 -0.660122,0.41094 -0.50718,0.29826 -1.681027,1.07718 -2.437848,1.61768 -0.400863,0.28624 -0.850308,0.59558 -0.998765,0.68738 -0.14846,0.0918 -0.908732,0.72822 -1.689501,1.41431 -1.487802,1.30744 -2.04884,1.91891 -2.071022,2.25733 -0.01596,0.24355 -0.17287,0.469 -0.446086,0.64081 -0.423173,0.26613 -0.878007,0.23638 -1.192057,-0.078 -0.657353,-0.65807 -0.07329,-1.60998 2.235171,-3.64289 4.616927,-4.06566 11.501982,-8.14723 18.218243,-10.8 1.377224,-0.54395 3.514244,-1.32679 3.605651,-1.3208 0.0222,10e-4 0.150821,-0.0368 0.285734,-0.0859 0.978758,-0.35344 2.081658,-0.68892 3.368615,-1.02476 2.796097,-0.72968 4.755695,-1.06548 6.957367,-1.19223 2.537304,-0.14608 5.216391,0.20347 6.7102,0.87551 0.441323,0.19854 1.137136,0.60525 1.440929,0.84225 0.43,0.33545 1.06999,1.12058 1.290066,1.58278 0.317183,0.66596 0.380327,1.04614 0.323523,1.94766 -0.05136,0.80647 -0.07961,0.9315 -0.410041,1.78061 -1.065686,2.73876 -4.453481,6.00788 -10.062115,9.70953 -1.395799,0.92119 -2.002127,1.29052 -3.406337,2.07467 -1.053394,0.58825 -3.503461,1.87406 -3.563508,1.87013 -0.01309,-8.6e-4 -0.255803,0.11385 -0.539336,0.25495 -0.495944,0.24681 -2.997984,1.31513 -3.927055,1.67687 -0.247066,0.0961 -0.644938,0.25132 -0.884171,0.34485 -0.411574,0.1609 -0.703169,0.27174 -1.303184,0.49544 -0.143333,0.0539 -0.533224,0.18548 -0.866501,0.29346 -0.333275,0.10804 -0.710218,0.23588 -0.837648,0.28411 -1.019493,0.38577 -3.620116,1.10554 -5.493904,1.52057 l -1.060363,0.23493 -0.346981,0.45212 c -0.190835,0.24861 -0.542129,0.71891 -0.780651,1.04503 -1.623115,2.21911 -2.276375,3.08784 -5.909948,7.8593 -1.180404,1.5501 -5.685935,7.39029 -6.633464,8.59851 -0.604024,0.77017 -1.01049,0.95698 -1.516069,0.69662 z m 16.29571,-9.28109 c -0.138499,-0.0609 -0.362006,-0.32704 -0.421279,-0.50175 -0.11922,-0.35117 0.152643,-0.68277 0.901735,-1.09985 0.875731,-0.4876 3.146493,-1.96394 4.189383,-2.72367 0.746535,-0.54394 2.492545,-1.8645 3.0068,-2.27424 l 0.461839,-0.36795 0.0233,-0.35501 c 0.01791,-0.27293 0.06372,-0.42558 0.19811,-0.6598 0.66259,-1.1552 2.519031,-1.67294 3.147862,-0.87801 0.09854,0.12457 0.189146,0.31115 0.201328,0.41489 0.02312,0.19649 -0.111594,0.57682 -0.286595,0.80915 -0.0854,0.11343 -0.08752,0.13851 -0.01864,0.21716 0.06902,0.0789 0.166116,0.0775 0.839536,-0.0124 0.418843,-0.0559 0.963632,-0.15216 1.21067,-0.21421 0.52473,-0.13191 0.746978,-0.0982 0.944169,0.14306 0.252046,0.30842 0.299468,0.58433 0.154866,0.90064 -0.03665,0.0801 -0.618307,0.64739 -1.292557,1.26042 -1.319944,1.2002 -2.180324,2.05608 -2.390871,2.37835 l -0.131765,0.20171 0.388547,-0.11794 c 0.559241,-0.16956 1.280475,-0.45205 2.57145,-1.00712 0.623358,-0.26804 1.525164,-0.64779 2.004019,-0.84387 1.0348,-0.42379 1.115139,-0.46126 1.647066,-0.76759 0.62537,-0.36018 1.752515,-0.93125 2.847073,-1.44249 0.192283,-0.0898 0.470042,-0.25557 0.617241,-0.36848 0.147187,-0.11279 0.41471,-0.27887 0.594483,-0.36903 0.407551,-0.20436 1.298495,-0.56582 1.38134,-0.56039 0.03397,0.002 0.0669,-0.0653 0.07315,-0.15051 0.01483,-0.20493 0.213491,-0.56273 0.391605,-0.70607 0.201288,-0.1622 1.047736,-0.48328 1.546598,-0.58688 1.115123,-0.23141 2.049186,-0.0249 2.668133,0.58999 0.433199,0.43033 0.661282,1.12768 0.553093,1.69105 -0.05558,0.28923 -0.05365,0.29626 0.0757,0.27729 0.07301,-0.011 0.286432,-0.038 0.474309,-0.0606 1.040566,-0.12529 2.348749,-0.42918 3.01128,-0.69958 1.126478,-0.45986 1.877468,-0.85563 2.358511,-1.243 0.421615,-0.33948 0.929696,-0.63982 1.260846,-0.74528 0.297086,-0.0946 0.800725,-0.0705 1.043218,0.0503 0.242481,0.12045 0.494482,0.46494 0.52494,0.71746 0.04491,0.37257 -0.07155,0.57627 -1.091344,1.90855 -0.847397,1.10707 -1.612436,2.29487 -1.483509,2.30332 0.02029,0.001 0.274466,-0.10973 0.564893,-0.24676 0.907214,-0.42813 2.718891,-1.67072 3.619217,-2.48212 0.419126,-0.37781 0.429395,-0.39336 0.478881,-0.72467 0.107549,-0.72028 0.774864,-1.678 1.444666,-2.07342 0.318418,-0.18797 0.854221,-0.34292 1.124435,-0.32521 0.736351,0.0483 1.128573,0.71925 0.86352,1.47729 -0.08116,0.23221 -0.562424,0.87573 -0.930369,1.24409 l -0.251925,0.2522 0.265393,0.13951 c 0.168859,0.089 0.424273,0.15944 0.702288,0.1943 0.651257,0.0816 1.312453,-0.0853 2.797103,-0.70555 l 0.725967,-0.30336 0.30324,-0.44954 c 0.761572,-1.12893 2.189232,-2.22572 3.696804,-2.84004 1.692356,-0.68965 2.987555,-0.69954 3.626934,-0.0277 0.3525,0.37038 0.445546,0.62921 0.387617,1.07835 -0.06786,0.52679 -0.253961,0.82571 -0.828683,1.33174 -1.064174,0.93687 -2.729047,1.65664 -4.620942,1.99767 l -0.532964,0.0961 0.022,0.17088 c 0.03534,0.27384 0.150167,0.33479 0.63104,0.33461 0.882124,9e-5 2.680762,-0.4719 4.5116,-1.18301 0.318789,-0.12379 0.670716,-0.2577 0.78205,-0.29752 0.111341,-0.0398 0.661421,-0.26712 1.222426,-0.50521 0.561045,-0.23806 1.1872,-0.48398 1.391472,-0.54654 0.373743,-0.11439 0.999494,-0.40718 1.919652,-0.89823 0.52767,-0.28158 1.455841,-0.74075 3.982161,-1.97018 1.41773,-0.68992 1.58903,-0.75924 1.89509,-0.76691 0.44027,-0.011 0.58249,0.0412 0.83566,0.30092 0.36119,0.37203 0.36539,0.79314 0.0123,1.23186 -0.14201,0.17645 -0.13702,0.17461 0.45326,-0.16464 0.86859,-0.49901 2.54401,-1.33449 3.21094,-1.6011 1.30497,-0.52169 2.10738,-0.53495 2.59764,-0.0429 0.71311,0.71569 0.41927,1.57348 -1.19718,3.49413 -0.146,0.17347 -0.25461,0.3279 -0.24125,0.34309 0.0303,0.0347 1.59555,-0.51288 2.5672,-0.89855 0.40448,-0.16063 1.13932,-0.44427 1.63307,-0.6306 1.16959,-0.44127 2.22511,-0.8874 2.55611,-1.08031 0.14534,-0.0847 0.54682,-0.3927 0.89214,-0.68428 0.78432,-0.66243 1.77071,-1.24369 2.87891,-1.69662 0.96789,-0.39556 1.65625,-0.58511 2.41421,-0.66474 0.95545,-0.10034 1.47432,-0.008 1.86422,0.33193 0.15762,0.13743 0.21675,0.1549 0.48841,0.14479 0.53512,-0.0199 0.87711,0.28568 0.88586,0.79173 0.006,0.39058 -0.11987,0.60418 -0.9399,1.58711 -0.58422,0.70015 -0.98175,1.23559 -0.98931,1.33273 -0.0144,0.17433 4.3296,-1.64287 6.52172,-2.72875 0.18633,-0.0923 0.34807,-0.16722 0.35946,-0.16647 0.0274,0.002 1.04737,-0.49855 1.6064,-0.78767 0.24114,-0.12478 0.58264,-0.29327 0.75882,-0.37448 0.17624,-0.0812 0.39063,-0.19005 0.47645,-0.24178 0.0859,-0.0518 0.16858,-0.0933 0.18388,-0.0923 0.0156,0.001 0.19482,-0.0841 0.39906,-0.18923 0.92605,-0.47659 1.53007,-0.47716 1.96722,-0.002 0.2774,0.30154 0.34383,0.61116 0.2036,0.94854 -0.11506,0.27703 -0.12151,0.27607 0.27982,0.0411 0.135,-0.0789 0.26174,-0.14265 0.28155,-0.14135 0.0195,0.001 0.15122,-0.0662 0.2922,-0.15028 0.14095,-0.0839 0.27315,-0.15152 0.29375,-0.15017 0.0204,0.001 0.10766,-0.04 0.19361,-0.0923 0.37879,-0.22981 2.30838,-1.06194 2.817,-1.21482 0.53227,-0.15995 1.30988,-0.13666 1.62869,0.0493 0.26184,0.15238 0.47011,0.4718 0.53725,0.82387 0.0479,0.25179 0.0394,0.31727 -0.0849,0.61918 -0.15915,0.38776 -0.43071,0.79355 -0.96468,1.44139 -0.20638,0.25052 -0.42848,0.52621 -0.49339,0.61263 l -0.118,0.15716 0.43549,-0.20203 c 0.42567,-0.19734 1.51025,-0.72834 2.97472,-1.45633 0.40149,-0.19957 0.81171,-0.40281 0.9118,-0.45164 0.0999,-0.049 0.35911,-0.18128 0.57576,-0.29415 0.21667,-0.11296 0.40572,-0.20455 0.42018,-0.2036 0.0943,0.006 0.66969,-0.39927 1.20433,-0.84868 1.52349,-1.28067 3.68388,-2.16352 5.07182,-2.07255 0.72582,0.0476 1.13951,0.27668 1.3864,0.76788 0.26928,0.53576 0.0678,1.17956 -0.55948,1.78821 -0.53068,0.51485 -1.24483,0.73375 -1.70487,0.52259 -0.40849,-0.18745 -0.56623,-0.64311 -0.32615,-0.94215 0.053,-0.0658 0.0802,-0.12026 0.0624,-0.12143 -0.0795,-0.005 -0.56078,0.23005 -1.03854,0.50757 -1.15618,0.67162 -2.01615,1.59173 -2.1461,2.29651 -0.0773,0.41881 -0.003,0.48912 0.55484,0.52522 1.08089,0.0703 3.08877,-0.52075 5.97132,-1.75649 1.94018,-0.83175 1.92605,-0.82434 2.03821,-1.06267 0.32184,-0.68432 1.49642,-1.85947 2.46309,-2.4644 0.61864,-0.38726 1.58286,-0.82564 2.15463,-0.97967 1.34297,-0.36189 2.24177,-0.25821 2.749,0.31724 0.40472,0.45904 0.42903,0.98511 0.0764,1.65054 -0.48248,0.91034 -2.61819,2.14186 -4.76358,2.74665 -0.74992,0.21133 -0.82707,0.27537 -0.61005,0.50581 0.12227,0.1298 0.60136,0.27481 0.99298,0.30048 1.26798,0.0831 5.25829,-0.58101 8.62433,-1.43543 1.80219,-0.45744 4.01152,-1.1484 5.42065,-1.69539 0.68496,-0.2659 0.80056,-0.28174 1.04884,-0.14328 0.25792,0.14378 0.40383,0.3862 0.38701,0.64293 -0.0262,0.40006 -0.35682,0.7336 -0.95281,0.96166 -2.98889,1.14337 -8.38771,2.67198 -11.38081,3.22231 -3.48643,0.64104 -5.2679,0.42748 -6.21922,-0.74541 -0.15478,-0.19085 -0.30781,-0.43826 -0.34006,-0.54969 -0.0325,-0.11158 -0.0732,-0.20374 -0.0908,-0.20489 -0.0175,-0.001 -0.3202,0.13438 -0.67208,0.3012 -1.72189,0.81614 -3.90332,1.65454 -5.14296,1.97669 -1.69408,0.44014 -2.99506,0.40325 -3.86137,-0.10956 -0.55818,-0.33042 -1.01325,-1.11338 -0.97613,-1.67965 l 0.0144,-0.21999 -0.42263,0.20097 c -0.23255,0.1106 -0.93755,0.49348 -1.56679,0.85098 -1.95018,1.10789 -3.12915,1.63038 -3.93994,1.74612 -1.18187,0.16882 -2.01119,-0.58971 -1.73323,-1.58531 0.10615,-0.38095 0.36247,-0.8172 0.85206,-1.45146 0.23449,-0.30367 0.33879,-0.47693 0.27532,-0.45717 -0.1922,0.0597 -1.6827,0.84698 -2.48104,1.31059 -0.86052,0.49962 -1.96213,1.20774 -3.27891,2.10746 -0.9335,0.63787 -1.1399,0.73638 -1.5769,0.75273 -0.72817,0.0275 -1.27287,-0.56728 -1.10823,-1.20954 0.0463,-0.18175 0.87028,-1.20552 1.39755,-1.7371 0.3069,-0.30942 0.34516,-0.32202 -1.01854,0.33461 -0.51324,0.24712 -1.55062,0.75628 -2.30529,1.13155 -0.75459,0.37525 -1.58185,0.77998 -1.83818,0.89951 -0.25638,0.11952 -0.59728,0.27956 -0.75764,0.35577 -0.72627,0.3452 -2.07714,0.86853 -2.52107,0.97664 -0.55027,0.13394 -1.08447,0.13195 -1.46825,-0.006 -0.31469,-0.11272 -0.84011,-0.68713 -0.87599,-0.95763 -0.0131,-0.1 -0.0448,-0.19686 -0.0713,-0.21535 -0.0262,-0.018 -0.31892,0.13788 -0.6509,0.34751 -1.06021,0.66942 -2.38138,1.32081 -3.04972,1.50379 -0.41989,0.11496 -0.99054,0.18995 -1.29404,0.17006 -0.77597,-0.0509 -1.46375,-0.75242 -1.41824,-1.44679 0.008,-0.12468 -0.008,-0.2283 -0.0363,-0.23013 -0.0485,-0.003 -0.27313,0.0933 -1.16773,0.50076 -0.68722,0.31306 -1.07677,0.49748 -1.13864,0.53918 -0.13092,0.0881 -2.11381,0.91538 -2.49557,1.0411 -1.08127,0.35628 -1.82283,0.41186 -2.38393,0.17865 -0.38028,-0.15799 -0.69703,-0.53754 -0.78642,-0.94213 -0.12695,-0.57452 0.11868,-1.15165 0.95448,-2.24172 0.55506,-0.72402 0.53555,-0.69302 0.41155,-0.65531 -0.32842,0.0998 -1.81381,0.8273 -2.34338,1.14767 -1.05568,0.63862 -2.64332,1.72629 -3.70492,2.53813 -0.91024,0.69621 -1.11752,0.82885 -1.49296,0.95516 -0.39455,0.13292 -0.75754,0.11886 -1.05225,-0.0409 -0.27451,-0.1485 -0.37926,-0.28296 -0.468606,-0.60126 -0.121895,-0.43411 0.0243,-0.68429 1.181996,-2.02223 0.67382,-0.77879 0.66896,-0.76979 0.31775,-0.59267 -0.16421,0.0829 -0.30816,0.15018 -0.31986,0.14942 -0.0119,-7.8e-4 -0.24858,0.11078 -0.52652,0.24788 -0.27805,0.13711 -0.51491,0.24869 -0.52661,0.24792 -0.0119,-7.8e-4 -0.160442,0.0697 -0.330565,0.15667 -0.170164,0.087 -0.665791,0.30723 -1.101445,0.48963 -0.72722,0.30441 -1.249724,0.55782 -2.354637,1.142 -0.46679,0.24671 -0.739234,0.36977 -2.681207,1.21043 -2.82553,1.22304 -4.706953,1.64613 -6.015989,1.35259 -0.824925,-0.18501 -1.46505,-0.76633 -1.628651,-1.47902 -0.03073,-0.13341 -0.07644,-0.2438 -0.101847,-0.24547 -0.02554,-0.002 -0.313009,0.0844 -0.639053,0.19101 -1.248396,0.40877 -2.030794,0.53778 -2.911382,0.48007 -0.638359,-0.0418 -1.07586,-0.16743 -1.583567,-0.45466 l -0.342008,-0.19339 -0.551356,0.46583 c -1.229444,1.03849 -2.179818,1.72055 -3.302102,2.36971 -2.015904,1.16605 -3.363581,1.12665 -3.99397,-0.11686 -0.117899,-0.23253 -0.129437,-0.32129 -0.09986,-0.7691 0.03713,-0.56218 0.202963,-1.04676 0.535965,-1.56626 0.102269,-0.15948 0.174755,-0.30275 0.161082,-0.31839 -0.01365,-0.0155 -0.278396,0.0586 -0.588262,0.16485 -0.309878,0.10628 -0.655058,0.18716 -0.767091,0.17982 -0.112025,-0.007 -0.564799,0.0784 -1.00617,0.19056 -1.173968,0.29816 -1.972837,0.44353 -2.718373,0.4947 -0.242152,0.0164 -0.282632,0.0448 -0.591163,0.40156 -0.424499,0.49181 -1.633431,1.5601 -2.24141,1.98082 -1.48003,1.02407 -2.698853,1.51342 -3.858899,1.54932 -0.617887,0.0193 -1.073067,-0.0804 -1.493321,-0.31888 -0.837681,-0.48023 -1.094551,-1.48365 -0.62765,-2.45185 0.09052,-0.18768 0.156461,-0.34183 0.146535,-0.34248 -0.0099,-6.5e-4 -0.308451,-0.002 -0.653171,0.0874 -0.532863,0.13897 -0.410435,0.1197 -0.855225,0.32505 -0.05176,0.0243 -0.08472,0.0322 -0.220619,0.11165 -0.05666,0.0332 -0.134967,0.0811 -0.202416,0.1379 -0.18091,0.15214 -0.858554,0.66583 -2.211242,1.40212 -0.740965,0.4033 -1.541664,0.83991 -1.779341,0.97037 -0.905538,0.49667 -1.927402,0.8481 -2.666382,0.91695 -0.419795,0.0389 -0.966011,-0.0603 -1.27855,-0.23581 -0.268985,-0.14997 -0.623248,-1.08996 -0.555048,-1.41991 0.140792,-0.68118 3.084186,-3.06558 2.979309,-3.49749 l -2.451605,0.40406 -1.73324,1.36129 -1.287648,0.90578 -1.50451,0.97998 c -3.344699,2.17869 -3.808241,2.41933 -4.268585,2.21688 z m 21.436489,-3.56565 c 0.521425,-0.19069 1.097021,-0.49476 1.577366,-0.83321 0.420227,-0.29609 1.65049,-1.33943 1.654672,-1.40324 0.0012,-0.0182 -0.179894,-0.12775 -0.402411,-0.24351 -0.222524,-0.11574 -0.50019,-0.30366 -0.617034,-0.41781 -0.116871,-0.11401 -0.230943,-0.20861 -0.253512,-0.21009 -0.103798,-0.007 -0.888176,0.61553 -1.27936,1.0151 -0.734815,0.75053 -1.235573,1.50058 -1.352969,2.02666 l -0.05466,0.2453 0.186765,-0.0249 c 0.10268,-0.0132 0.346262,-0.0831 0.541218,-0.15433 z m 4.335535,-4.04057 c -0.07321,-0.31226 -0.342534,-0.42785 -0.721221,-0.30955 l -0.162318,0.0506 0.169361,0.16274 c 0.09314,0.0897 0.275876,0.21018 0.406063,0.26813 0.267681,0.11914 0.363757,0.0658 0.308121,-0.172 z m 24.702102,-2.37056 c 0.194773,-0.12403 0.345914,-0.23495 0.335888,-0.24623 -0.03324,-0.0384 -0.903963,0.38701 -1.10246,0.53818 l -0.195338,0.14878 0.303859,-0.10766 c 0.16716,-0.059 0.463282,-0.20901 0.658051,-0.33307 z m 28.74232,-0.91129 c 1.27358,-0.66248 3.09214,-1.78584 3.56546,-2.20253 0.17583,-0.15475 0.0356,-0.16569 -0.48806,-0.041 -0.61319,0.14973 -1.75156,0.64451 -2.43794,1.0595 -0.59839,0.36178 -1.5785,1.18461 -1.89353,1.58959 l -0.20081,0.25822 0.464,-0.19641 c 0.25523,-0.10806 0.70122,-0.31981 0.99109,-0.47062 z m 41.98142,-5.87902 c 0.33568,-0.17426 0.60851,-0.34504 0.55676,-0.34843 -0.0428,-0.003 -0.67839,0.31891 -0.82895,0.41988 -0.2023,0.1358 -0.05,0.0958 0.2722,-0.0716 z"
         id="path1" /><path
         style="fill:#08121a;fill-opacity:1;fill-rule:nonzero;stroke:#08121a;stroke-width:0.7;stroke-linejoin:miter;stroke-miterlimit:20;stroke-dasharray:none;stroke-opacity:1"
         d="m 25.000001,158 c 0.0083,0.0342 1.316318,-0.28751 7.009684,-1.02058 3.874633,-0.49888 11.198632,-1.27956 22.40333,-1.924 11.687342,-0.67219 26.581692,-1.14088 45.586974,-1.14088 19.005301,0 33.899651,0.46869 45.587001,1.14088 11.2047,0.64444 18.5287,1.42512 22.40333,1.924 5.69336,0.73306 7.00133,1.05479 7.00968,1.02058 0.008,-0.0342 -1.26934,-0.51122 -6.94862,-1.43875 -3.91402,-0.63923 -11.12091,-1.70901 -22.38817,-2.61267 -11.59698,-0.9301 -26.72541,-1.62154 -45.6632,-1.62154 -18.937814,0 -34.066242,0.69144 -45.663216,1.62154 -11.267262,0.90366 -18.474154,1.97343 -22.38817,2.61267 -5.679286,0.92753 -6.95697,1.40454 -6.948623,1.43875 z"
         id="path6" /><rect
         style="fill:#08121a;fill-opacity:1;stroke:#08121a;stroke-width:0.624622;stroke-dasharray:none;stroke-opacity:1"
         id="rect7"
         width="5.9019594"
         height="5.9019594"
         x="175.94704"
         y="34.525673"
         transform="rotate(45)" /></g><text
       xml:space="preserve"
       style="font-style:normal;font-variant:normal;font-weight:normal;font-stretch:normal;font-size:5.08px;line-height:0.1;font-family:Arial;-inkscape-font-specification:Arial;text-align:center;letter-spacing:1.24974px;word-spacing:0.312318px;writing-mode:lr-tb;direction:ltr;text-anchor:middle;fill:#000000;stroke:#000000;stroke-width:0.386044;stroke-linecap:square"
       x="33.051727"
       y="35.163811"
       id="text3"><tspan
         sodipodi:role="line"
         id="tspan3"
         style="font-style:normal;font-variant:normal;font-weight:600;font-stretch:normal;font-size:5.08px;line-height:0.1;font-family:'Nunito Sans';-inkscape-font-specification:'Nunito Sans Semi-Bold';font-variant-ligatures:normal;font-variant-caps:normal;font-variant-numeric:normal;font-variant-east-asian:normal;letter-spacing:1.24974px;word-spacing:0.312318px;writing-mode:lr-tb;stroke-width:0.386044"
         x="33.051727"
         y="35.163811">CERTIFICATE OF </tspan><tspan
         sodipodi:role="line"
         style="font-style:normal;font-variant:normal;font-weight:600;font-stretch:normal;font-size:5.08px;line-height:0.1;font-family:'Nunito Sans';-inkscape-font-specification:'Nunito Sans Semi-Bold';font-variant-ligatures:normal;font-variant-caps:normal;font-variant-numeric:normal;font-variant-east-asian:normal;letter-spacing:1.24974px;word-spacing:0.312318px;writing-mode:lr-tb;stroke-width:0.386044"
         x="33.051727"
         y="35.847336"
         id="tspan8" /><tspan
         sodipodi:role="line"
         style="font-style:normal;font-variant:normal;font-weight:600;font-stretch:normal;font-size:5.08px;line-height:0.1;font-family:'Nunito Sans';-inkscape-font-specification:'Nunito Sans Semi-Bold';font-variant-ligatures:normal;font-variant-caps:normal;font-variant-numeric:normal;font-variant-east-asian:normal;letter-spacing:1.24974px;word-spacing:0.312318px;writing-mode:lr-tb;stroke-width:0.386044"
         x="33.051727"
         y="36.530861"
         id="tspan9" /><tspan
         sodipodi:role="line"
         style="font-style:normal;font-variant:normal;font-weight:600;font-stretch:normal;font-size:5.08px;line-height:0.1;font-family:'Nunito Sans';-inkscape-font-specification:'Nunito Sans Semi-Bold';font-variant-ligatures:normal;font-variant-caps:normal;font-variant-numeric:normal;font-variant-east-asian:normal;letter-spacing:1.24974px;word-spacing:0.312318px;writing-mode:lr-tb;stroke-width:0.386044"
         x="33.051727"
         y="37.214386"
         id="tspan10" /><tspan
         sodipodi:role="line"
         style="font-style:normal;font-variant:normal;font-weight:600;font-stretch:normal;font-size:5.08px;line-height:0.1;font-family:'Nunito Sans';-inkscape-font-specification:'Nunito Sans Semi-Bold';font-variant-ligatures:normal;font-variant-caps:normal;font-variant-numeric:normal;font-variant-east-asian:normal;letter-spacing:1.24974px;word-spacing:0.312318px;writing-mode:lr-tb;stroke-width:0.386044"
         x="33.051727"
         y="37.897907"
         id="tspan11" /><tspan
         sodipodi:role="line"
         style="font-style:normal;font-variant:normal;font-weight:600;font-stretch:normal;font-size:5.08px;line-height:0.1;font-family:'Nunito Sans';-inkscape-font-specification:'Nunito Sans Semi-Bold';font-variant-ligatures:normal;font-variant-caps:normal;font-variant-numeric:normal;font-variant-east-asian:normal;letter-spacing:1.24974px;word-spacing:0.312318px;writing-mode:lr-tb;stroke-width:0.386044"
         x="33.051727"
         y="38.581432"
         id="tspan12" /><tspan
         sodipodi:role="line"
         style="font-style:normal;font-variant:normal;font-weight:600;font-stretch:normal;font-size:5.08px;line-height:0.1;font-family:'Nunito Sans';-inkscape-font-specification:'Nunito Sans Semi-Bold';font-variant-ligatures:normal;font-variant-caps:normal;font-variant-numeric:normal;font-variant-east-asian:normal;letter-spacing:1.24974px;word-spacing:0.312318px;writing-mode:lr-tb;stroke-width:0.386044"
         x="33.051727"
         y="39.264957"
         id="tspan13" /><tspan
         sodipodi:role="line"
         style="font-style:normal;font-variant:normal;font-weight:600;font-stretch:normal;font-size:5.08px;line-height:0.1;font-family:'Nunito Sans';-inkscape-font-specification:'Nunito Sans Semi-Bold';font-variant-ligatures:normal;font-variant-caps:normal;font-variant-numeric:normal;font-variant-east-asian:normal;letter-spacing:1.24974px;word-spacing:0.312318px;writing-mode:lr-tb;stroke-width:0.386044"
         x="33.051727"
         y="39.948483"
         id="tspan14" /><tspan
         sodipodi:role="line"
         style="font-style:normal;font-variant:normal;font-weight:600;font-stretch:normal;font-size:5.08px;line-height:0.1;font-family:'Nunito Sans';-inkscape-font-specification:'Nunito Sans Semi-Bold';font-variant-ligatures:normal;font-variant-caps:normal;font-variant-numeric:normal;font-variant-east-asian:normal;letter-spacing:1.24974px;word-spacing:0.312318px;writing-mode:lr-tb;stroke-width:0.386044"
         x="33.051727"
         y="40.632008"
         id="tspan15" /><tspan
         sodipodi:role="line"
         style="font-style:normal;font-variant:normal;font-weight:600;font-stretch:normal;font-size:5.08px;line-height:0.1;font-family:'Nunito Sans';-inkscape-font-specification:'Nunito Sans Semi-Bold';font-variant-ligatures:normal;font-variant-caps:normal;font-variant-numeric:normal;font-variant-east-asian:normal;letter-spacing:1.24974px;word-spacing:0.312318px;writing-mode:lr-tb;stroke-width:0.386044"
         x="33.051727"
         y="41.315533"
         id="tspan16" /><tspan
         sodipodi:role="line"
         style="font-style:normal;font-variant:normal;font-weight:600;font-stretch:normal;font-size:5.08px;line-height:0.1;font-family:'Nunito Sans';-inkscape-font-specification:'Nunito Sans Semi-Bold';font-variant-ligatures:normal;font-variant-caps:normal;font-variant-numeric:normal;font-variant-east-asian:normal;letter-spacing:1.24974px;word-spacing:0.312318px;writing-mode:lr-tb;stroke-width:0.386044"
         x="33.051727"
         y="41.999058"
         id="tspan17" /><tspan
         sodipodi:role="line"
         style="font-style:normal;font-variant:normal;font-weight:600;font-stretch:normal;font-size:5.08px;line-height:0.1;font-family:'Nunito Sans';-inkscape-font-specification:'Nunito Sans Semi-Bold';font-variant-ligatures:normal;font-variant-caps:normal;font-variant-numeric:normal;font-variant-east-asian:normal;letter-spacing:1.24974px;word-spacing:0.312318px;writing-mode:lr-tb;stroke-width:0.386044"
         x="33.676598"
         y="42.682579"
         id="tspan19">PROVENANCE</tspan></text><text
       xml:space="preserve"
       style="font-style:normal;font-variant:normal;font-weight:normal;font-stretch:normal;font-size:5.08px;line-height:0.1;font-family:Arial;-inkscape-font-specification:Arial;text-align:center;letter-spacing:1.24974px;word-spacing:0.312318px;writing-mode:lr-tb;direction:ltr;text-anchor:middle;fill:#000000;stroke:#000000;stroke-width:0.386044;stroke-linecap:square"
       x="31.633162"
       y="63.408348"
       id="text3-2"><tspan
         sodipodi:role="line"
         style="font-style:normal;font-variant:normal;font-weight:800;font-stretch:normal;font-size:5.08px;line-height:0.1;font-family:'Nunito Sans';-inkscape-font-specification:'Nunito Sans Ultra-Bold';font-variant-ligatures:normal;font-variant-caps:normal;font-variant-numeric:normal;font-variant-east-asian:normal;letter-spacing:1.24974px;word-spacing:0.312318px;writing-mode:lr-tb;stroke-width:0.386044"
         x="32.25803"
         y="63.408348"
         id="tspan30">1968</tspan></text><text
       xml:space="preserve"
       style="font-style:normal;font-variant:normal;font-weight:normal;font-stretch:normal;font-size:5.08px;line-height:0.1;font-family:Arial;-inkscape-font-specification:Arial;text-align:center;letter-spacing:1.24974px;word-spacing:0.312318px;writing-mode:lr-tb;direction:ltr;text-anchor:middle;fill:#000000;stroke:#000000;stroke-width:0.386044;stroke-linecap:square"
       x="31.633162"
       y="70.013245"
       id="text3-2-1"><tspan
         sodipodi:role="line"
         style="font-style:normal;font-variant:normal;font-weight:800;font-stretch:normal;font-size:5.08px;line-height:0.1;font-family:'Nunito Sans';-inkscape-font-specification:'Nunito Sans Ultra-Bold';font-variant-ligatures:normal;font-variant-caps:normal;font-variant-numeric:normal;font-variant-east-asian:normal;letter-spacing:1.24974px;word-spacing:0.312318px;writing-mode:lr-tb;stroke-width:0.386044"
         x="32.25803"
         y="70.013245"
         id="tspan30-2">COLLECTION</tspan></text><rect
       style="fill:#f4e3d7;fill-opacity:0;stroke:#08121a;stroke-width:0.338386;stroke-linecap:butt;stroke-linejoin:round;stroke-dasharray:none;stroke-dashoffset:0;stroke-opacity:1"
       id="rect2"
       width="59.351612"
       height="84.75161"
       x="2.074194"
       y="2.0741949" /><path
       style="fill:#b08d57;fill-opacity:0;fill-rule:nonzero;stroke:none;stroke-width:0.24776;stroke-linejoin:bevel;stroke-dasharray:none;stroke-opacity:1"
       d="m 22.319682,50.8 c 0.337914,0.03716 1.124322,0.173488 2.027483,0.222984 1.800165,0.09865 5.406621,0 8.109931,0 2.366968,0 5.524711,0.09865 7.100901,0 0.790791,-0.0495 1.479354,-0.18582 1.775225,-0.222984 -0.295871,-0.03716 -0.984434,-0.173488 -1.775225,-0.222984 -1.57619,-0.09865 -4.733933,0 -7.100899,0 -2.703312,0 -6.309768,-0.09865 -8.109933,0 -0.903161,0.0495 -1.689569,0.18582 -2.027483,0.222984 z"
       id="path22"
       sodipodi:nodetypes="ccc"
       inkscape:path-effect="#path-effect31"
       inkscape:original-d="m 22.319682,50.8 h 10.137415 8.876125"
       inkscape:linked-fill="path32" /></g></svg>
