<?xml version="1.0" encoding="UTF-8" standalone="no"?>
<!-- Created with Inkscape (http://www.inkscape.org/) -->

<svg
   width="2.5in"
   height="3.5in"
   viewBox="0 0 63.500001 88.899998"
   version="1.1"
   id="svg1"
   xml:space="preserve"
   inkscape:version="1.4.3 (0d15f75, 2025-12-25)"
   sodipodi:docname="Authentication Card back.svg"
   xmlns:inkscape="http://www.inkscape.org/namespaces/inkscape"
   xmlns:sodipodi="http://sodipodi.sourceforge.net/DTD/sodipodi-0.dtd"
   xmlns="http://www.w3.org/2000/svg"
   xmlns:svg="http://www.w3.org/2000/svg"><sodipodi:namedview
     id="namedview1"
     pagecolor="#ffffff"
     bordercolor="#000000"
     borderopacity="0.25"
     inkscape:showpageshadow="2"
     inkscape:pageopacity="0.0"
     inkscape:pagecheckerboard="0"
     inkscape:deskcolor="#d1d1d1"
     inkscape:document-units="in"
     inkscape:zoom="2"
     inkscape:cx="-24.25"
     inkscape:cy="221"
     inkscape:window-width="2530"
     inkscape:window-height="1360"
     inkscape:window-x="0"
     inkscape:window-y="0"
     inkscape:window-maximized="0"
     inkscape:current-layer="layer1"
     showgrid="true"><inkscape:grid
       id="grid22"
       units="in"
       originx="0"
       originy="0"
       spacingx="25.4"
       spacingy="25.399999"
       empcolor="#0099e5"
       empopacity="0.30196078"
       color="#0099e5"
       opacity="0.14901961"
       empspacing="5"
       enabled="true"
       visible="true" /></sodipodi:namedview><defs
     id="defs1"><inkscape:path-effect
       effect="powerstroke"
       message=""
       id="path-effect31"
       is_visible="true"
       lpeversion="1.3"
       scale_width="1.8"
       interpolator_type="CentripetalCatmullRom"
       interpolator_beta="0.2"
       start_linecap_type="zerowidth"
       end_linecap_type="zerowidth"
       offset_points="0.2,0.12388 | 1,0.12388 | 1.8,0.12388"
       linejoin_type="round"
       miter_limit="4"
       not_jump="false"
       sort_points="true" /><inkscape:path-effect
       effect="fill_between_many"
       method="bsplinespiro"
       autoreverse="false"
       close="false"
       join="false"
       linkedpaths="#path22,0,1"
       id="path-effect32" /></defs><g
     inkscape:label="Layer 1"
     inkscape:groupmode="layer"
     id="layer1"><g
       id="g2"
       transform="scale(28.222222,80.81818)"><rect
         style="fill:#f4e3d7;fill-opacity:1;stroke:#000000;stroke-width:0;stroke-linecap:square;stroke-dasharray:none"
         id="rect1"
         width="2.25"
         height="1.1"
         x="0"
         y="0" /></g><path
       style="fill:#08121a;stroke-width:0.227135"
       d="m 6.9058966,25.432187 c -0.073964,-0.04115 -0.1256817,-0.147685 -0.1197594,-0.246738 0.00534,-0.08934 0.055312,-0.176815 0.3100576,-0.542747 0.6309269,-0.906296 0.7896613,-1.135326 1.0708354,-1.5451 0.1730082,-0.252121 0.4152042,-0.604528 0.5382123,-0.783092 0.7933971,-1.151722 1.2542623,-1.828134 1.6208195,-2.37886 0.236831,-0.355836 0.322326,-0.483501 0.470604,-0.702761 0.16265,-0.240508 0.165063,-0.232353 -0.05861,-0.197847 -0.07722,0.01198 -0.182416,0.02674 -0.233785,0.03294 -0.05138,0.0063 -0.215576,0.03081 -0.364911,0.05479 -0.3820507,0.06128 -0.4671292,0.06132 -0.5464437,2.77e-4 -0.084781,-0.06523 -0.1183934,-0.15259 -0.1003873,-0.260898 0.016874,-0.101471 0.05576,-0.162011 0.1453508,-0.226285 0.054119,-0.03882 0.1581116,-0.06201 0.5784022,-0.12898 0.281832,-0.04491 0.64767,-0.110322 0.812973,-0.145349 0.1653,-0.035 0.321778,-0.06596 0.347724,-0.06874 0.05041,-0.0054 0.04289,0.0052 0.38236,-0.508929 0.104363,-0.157869 0.263001,-0.394491 0.352537,-0.525858 0.08953,-0.131346 0.21803,-0.32054 0.285546,-0.420408 0.511348,-0.756402 1.309221,-1.908862 1.611174,-2.327206 0.05003,-0.06931 0.228676,-0.323561 0.396982,-0.56503 0.400535,-0.574611 0.465066,-0.638041 0.636644,-0.625896 0.0666,0.0047 0.09552,0.01894 0.143808,0.07126 0.12419,0.134303 0.113257,0.237604 -0.05252,0.496005 -0.116299,0.181286 -0.422996,0.645182 -0.575573,0.870584 -0.06404,0.09459 -0.238787,0.357149 -0.388315,0.583391 -0.149529,0.226268 -0.34715,0.523227 -0.439158,0.659902 -0.24295,0.360954 -0.46167,0.690976 -0.652964,0.985268 -0.09241,0.142175 -0.279707,0.429969 -0.416205,0.639542 -0.136499,0.209565 -0.245764,0.383998 -0.242808,0.38764 0.02117,0.0261 1.022361,-0.284173 1.542353,-0.477917 0.644441,-0.240139 1.52613,-0.61696 1.991349,-0.851078 1.077153,-0.542067 1.717288,-0.918413 2.599602,-1.528438 1.282014,-0.886329 2.243693,-1.747765 2.76889,-2.480231 0.455085,-0.634712 0.611963,-1.161931 0.467954,-1.572709 -0.105265,-0.300232 -0.455592,-0.54703 -0.960987,-0.677004 -0.433461,-0.111474 -0.699193,-0.142912 -1.152652,-0.136384 -0.531651,0.0077 -0.922546,0.05188 -1.490713,0.168589 -0.165238,0.03393 -0.351017,0.07028 -0.412842,0.08074 -0.127255,0.02156 -0.771145,0.194382 -0.884353,0.237398 -0.04087,0.0155 -0.197674,0.06853 -0.348441,0.117772 -1.03272,0.337281 -2.815192,1.13734 -3.844418,1.725532 -0.08452,0.04831 -0.2367,0.133952 -0.338174,0.190322 -0.308402,0.171305 -1.11036,0.663498 -1.313398,0.806088 -0.06633,0.04657 -0.163851,0.112162 -0.216707,0.145717 -0.166499,0.105762 -0.551855,0.381963 -0.800307,0.573622 -0.1315974,0.101499 -0.2791431,0.21119 -0.3278792,0.243742 -0.048737,0.03255 -0.2983225,0.258223 -0.5546367,0.501507 -0.488422,0.463613 -0.672602,0.680437 -0.679884,0.800439 -0.00524,0.08636 -0.05675,0.166305 -0.146443,0.227228 -0.138921,0.09437 -0.2882359,0.08382 -0.3913336,-0.02766 -0.2157986,-0.233349 -0.02406,-0.570891 0.7337715,-1.291752 1.515665,-1.441664 3.77592,-2.88897 5.980763,-3.82963 0.452121,-0.192882 1.153671,-0.470473 1.183679,-0.468349 0.0073,3.54e-4 0.04951,-0.01305 0.0938,-0.03046 0.32131,-0.125328 0.683375,-0.244288 1.105863,-0.363375 0.917915,-0.2587415 1.56122,-0.3778146 2.283994,-0.4227596 0.832957,-0.051799 1.712459,0.07215 2.202853,0.3104518 0.14488,0.070402 0.373304,0.2146188 0.473035,0.2986578 0.141162,0.118949 0.351261,0.397353 0.423508,0.561247 0.104126,0.236146 0.124856,0.370956 0.106208,0.690631 -0.01686,0.28597 -0.02614,0.330305 -0.13461,0.631396 -0.349848,0.971152 -1.462008,2.130366 -3.303235,3.442954 -0.458218,0.32665 -0.657266,0.457613 -1.118246,0.735669 -0.345813,0.20859 -1.150132,0.664533 -1.169844,0.663139 -0.0043,-3.05e-4 -0.08398,0.04037 -0.177056,0.0904 -0.16281,0.08752 -0.984191,0.466339 -1.28919,0.594611 -0.08111,0.03408 -0.211723,0.08912 -0.29026,0.122282 -0.135113,0.05705 -0.230839,0.09636 -0.427814,0.17568 -0.04705,0.01911 -0.17505,0.06577 -0.284459,0.10406 -0.109409,0.03831 -0.233154,0.08364 -0.274987,0.100744 -0.334683,0.136792 -1.188427,0.392019 -1.803562,0.539187 l -0.348101,0.0833 -0.113908,0.16032 c -0.06265,0.08816 -0.177973,0.254922 -0.256276,0.370563 -0.532843,0.786886 -0.747298,1.094934 -1.9401426,2.786871 -0.3875081,0.549658 -1.8666032,2.620563 -2.177662,3.048992 -0.1982916,0.273099 -0.331728,0.339341 -0.4977017,0.247018 z m 5.3496254,-3.291031 c -0.04547,-0.02159 -0.118841,-0.115967 -0.138299,-0.177919 -0.03914,-0.124523 0.05011,-0.242107 0.296025,-0.390001 0.287489,-0.172901 1.032945,-0.696404 1.375309,-0.965801 0.245076,-0.192879 0.818263,-0.661143 0.987085,-0.806435 l 0.151615,-0.130473 0.0076,-0.125885 c 0.0059,-0.09678 0.02092,-0.150909 0.06504,-0.233962 0.217518,-0.409629 0.826958,-0.593217 1.033394,-0.311339 0.03235,0.04417 0.06209,0.110333 0.06609,0.147118 0.0076,0.06968 -0.03664,0.204538 -0.09408,0.286921 -0.02804,0.04022 -0.02873,0.04912 -0.0061,0.077 0.02266,0.02798 0.05453,0.02748 0.275606,-0.0044 0.1375,-0.01982 0.316345,-0.05396 0.397444,-0.07596 0.172261,-0.04677 0.245221,-0.03482 0.309956,0.05073 0.08274,0.109364 0.09831,0.207201 0.05084,0.319363 -0.01203,0.0284 -0.20298,0.229561 -0.424326,0.446939 -0.433317,0.425585 -0.715766,0.729076 -0.784886,0.843352 l -0.04326,0.07153 0.127554,-0.04182 c 0.18359,-0.06012 0.42036,-0.160295 0.844167,-0.35712 0.204638,-0.09505 0.500687,-0.229703 0.657888,-0.299232 0.339708,-0.150274 0.366082,-0.163561 0.540705,-0.272184 0.2053,-0.127718 0.575324,-0.330217 0.93465,-0.511501 0.06312,-0.03184 0.154307,-0.09062 0.20263,-0.130661 0.04832,-0.03999 0.136143,-0.09889 0.19516,-0.130856 0.133792,-0.07247 0.426275,-0.200637 0.453472,-0.198712 0.01115,7.09e-4 0.02196,-0.02316 0.02401,-0.05337 0.0049,-0.07267 0.07009,-0.199542 0.128558,-0.250369 0.06608,-0.05752 0.343955,-0.171369 0.507724,-0.208105 0.366077,-0.08206 0.672715,-0.0088 0.875906,0.209208 0.142212,0.152593 0.217088,0.39987 0.181571,0.599638 -0.01825,0.10256 -0.01761,0.105052 0.02485,0.09833 0.02397,-0.0039 0.09403,-0.01347 0.155708,-0.02149 0.341601,-0.04443 0.771057,-0.152185 0.988556,-0.248067 0.369805,-0.163065 0.616343,-0.303403 0.774262,-0.440763 0.138409,-0.120378 0.305204,-0.226877 0.413916,-0.264272 0.09753,-0.03355 0.262865,-0.025 0.342472,0.01784 0.0796,0.04271 0.16233,0.164865 0.172329,0.254408 0.01474,0.132111 -0.02349,0.204342 -0.358271,0.676763 -0.278187,0.392562 -0.529337,0.81375 -0.487012,0.816746 0.0067,3.55e-4 0.0901,-0.03891 0.185445,-0.0875 0.297824,-0.151813 0.892569,-0.592429 1.188132,-0.880148 0.137593,-0.13397 0.140964,-0.139483 0.157209,-0.256964 0.03531,-0.255408 0.254376,-0.595012 0.474261,-0.735226 0.104532,-0.06665 0.280428,-0.121597 0.369135,-0.115318 0.241732,0.01713 0.370493,0.255043 0.28348,0.523841 -0.02664,0.08234 -0.184635,0.310529 -0.305426,0.441148 l -0.0827,0.08943 0.08713,0.04947 c 0.05543,0.03156 0.139282,0.05654 0.23055,0.0689 0.213797,0.02894 0.430857,-0.03025 0.918245,-0.250185 l 0.238323,-0.10757 0.09955,-0.159405 c 0.250012,-0.400313 0.718691,-0.78923 1.213603,-1.007065 0.555574,-0.244547 0.980767,-0.248054 1.190665,-0.0098 0.115721,0.131335 0.146266,0.223115 0.127249,0.382378 -0.02228,0.186797 -0.08337,0.292793 -0.272044,0.472228 -0.349351,0.33221 -0.895903,0.587437 -1.516982,0.708365 l -0.174964,0.03408 0.0072,0.06059 c 0.0116,0.0971 0.0493,0.118715 0.207161,0.118651 0.289587,3.2e-5 0.880052,-0.167334 1.481087,-0.41949 0.104654,-0.04389 0.220186,-0.09138 0.256735,-0.105499 0.03655,-0.01411 0.217134,-0.09472 0.401303,-0.179145 0.184182,-0.08441 0.389739,-0.171617 0.456798,-0.193801 0.122694,-0.04056 0.328119,-0.144384 0.630192,-0.318508 0.173226,-0.09985 0.47793,-0.262666 1.307281,-0.698617 0.465418,-0.244642 0.521654,-0.269223 0.622128,-0.271942 0.144534,-0.0039 0.191223,0.01461 0.274334,0.106704 0.118573,0.131921 0.119952,0.281244 0.004,0.436812 -0.04662,0.06257 -0.04498,0.06192 0.148798,-0.05838 0.285145,-0.176947 0.835159,-0.473204 1.054101,-0.567743 0.428402,-0.184989 0.69182,-0.189691 0.852765,-0.01521 0.234103,0.25378 0.13764,0.557949 -0.393015,1.239002 -0.04793,0.06151 -0.08359,0.116272 -0.0792,0.121658 0.0099,0.0123 0.523794,-0.181865 0.842771,-0.318621 0.132785,-0.05696 0.374021,-0.157536 0.536112,-0.223608 0.383958,-0.156472 0.730468,-0.314668 0.83913,-0.383073 0.04771,-0.03003 0.179513,-0.13925 0.292876,-0.242643 0.25748,-0.234894 0.581296,-0.441006 0.945101,-0.601613 0.317743,-0.140264 0.543721,-0.207478 0.792547,-0.235714 0.313659,-0.03558 0.483996,-0.0028 0.611994,0.117701 0.05174,0.04873 0.07116,0.05493 0.160337,0.05134 0.175672,-0.0071 0.287942,0.101301 0.290814,0.280744 0.002,0.138497 -0.03935,0.214239 -0.308554,0.562781 -0.19179,0.24827 -0.322293,0.438135 -0.324775,0.47258 -0.0047,0.06182 1.42134,-0.582554 2.140978,-0.967602 0.06117,-0.03273 0.114266,-0.05929 0.118005,-0.05903 0.009,7.09e-4 0.343835,-0.176784 0.527356,-0.279304 0.07916,-0.04425 0.191272,-0.103993 0.249109,-0.132789 0.05786,-0.02879 0.128238,-0.06739 0.156411,-0.08573 0.0282,-0.01837 0.05534,-0.03308 0.06036,-0.03273 0.0051,3.55e-4 0.06396,-0.02982 0.131005,-0.0671 0.304008,-0.168996 0.502298,-0.169198 0.645807,-7.09e-4 0.09107,0.106925 0.112874,0.216715 0.06684,0.336348 -0.03777,0.09823 -0.03989,0.09789 0.09186,0.01457 0.04432,-0.02798 0.08592,-0.05058 0.09243,-0.05012 0.0064,3.55e-4 0.04964,-0.02347 0.09593,-0.05329 0.04627,-0.02975 0.08967,-0.05373 0.09643,-0.05325 0.0067,3.54e-4 0.03534,-0.01418 0.06356,-0.03273 0.124351,-0.08149 0.757805,-0.376559 0.924777,-0.43077 0.174736,-0.05672 0.430013,-0.04846 0.534674,0.01748 0.08596,0.05403 0.154329,0.167298 0.17637,0.29214 0.01573,0.08928 0.01293,0.112503 -0.02787,0.219558 -0.05225,0.137498 -0.141395,0.28139 -0.316689,0.511111 -0.06775,0.08883 -0.140664,0.186591 -0.161973,0.217235 l -0.03874,0.05573 0.142964,-0.07164 c 0.139741,-0.06998 0.495792,-0.258266 0.976554,-0.516408 0.131803,-0.07077 0.266472,-0.142835 0.29933,-0.16015 0.0328,-0.01737 0.11789,-0.06428 0.189013,-0.104304 0.07113,-0.04005 0.133191,-0.07253 0.137938,-0.0722 0.03096,0.0021 0.219849,-0.14158 0.395363,-0.300938 0.500138,-0.45412 1.20936,-0.767175 1.664999,-0.734917 0.238275,0.01688 0.374083,0.09811 0.455133,0.272287 0.0884,0.189978 0.02226,0.418266 -0.183668,0.634091 -0.174214,0.182563 -0.408658,0.260184 -0.559682,0.185308 -0.134101,-0.06647 -0.185885,-0.228044 -0.10707,-0.334082 0.0174,-0.02333 0.02633,-0.04264 0.02049,-0.04306 -0.0261,-0.0018 -0.184096,0.08157 -0.340937,0.179982 -0.379555,0.238153 -0.66187,0.56442 -0.704531,0.814332 -0.02538,0.148508 -9.84e-4,0.17344 0.182146,0.18624 0.354839,0.02493 1.013994,-0.184655 1.96029,-0.622843 0.636931,-0.294935 0.632292,-0.292307 0.669113,-0.376818 0.105655,-0.242656 0.491251,-0.659359 0.808593,-0.873865 0.20309,-0.13732 0.519628,-0.292768 0.707331,-0.347386 0.440876,-0.128324 0.735938,-0.09156 0.902454,0.112492 0.132863,0.162773 0.140844,0.349315 0.02508,0.585274 -0.158391,0.322802 -0.859511,0.759493 -1.563809,0.973949 -0.246187,0.07494 -0.271514,0.09764 -0.200269,0.179358 0.04014,0.04603 0.197417,0.09745 0.325979,0.106549 0.416258,0.02947 1.726214,-0.206024 2.831232,-0.508997 0.591631,-0.162206 1.316919,-0.407217 1.779515,-0.601177 0.224861,-0.09429 0.262811,-0.0999 0.344317,-0.05081 0.08467,0.05098 0.132571,0.136945 0.12705,0.22798 -0.0086,0.14186 -0.117139,0.260131 -0.312793,0.341 -0.981206,0.405434 -2.753553,0.947472 -3.736141,1.142616 -1.14454,0.22731 -1.729369,0.151583 -2.041672,-0.264318 -0.05081,-0.06767 -0.10105,-0.155405 -0.111637,-0.194918 -0.01067,-0.03957 -0.02403,-0.07225 -0.02981,-0.07265 -0.0057,-3.55e-4 -0.105117,0.04765 -0.220633,0.106804 -0.56527,0.2894 -1.281399,0.586692 -1.688353,0.700925 -0.55614,0.156072 -0.983231,0.142991 -1.267627,-0.03885 -0.183242,-0.117166 -0.332634,-0.3948 -0.320448,-0.595596 l 0.0047,-0.07801 -0.138743,0.07126 c -0.07634,0.03922 -0.307783,0.174986 -0.514352,0.301754 -0.640214,0.392852 -1.027251,0.578125 -1.293421,0.619166 -0.387989,0.05986 -0.660242,-0.209109 -0.568992,-0.562144 0.03485,-0.135083 0.118993,-0.289775 0.279718,-0.514681 0.07698,-0.10768 0.111219,-0.169117 0.09038,-0.16211 -0.0631,0.02117 -0.552404,0.300335 -0.814486,0.464729 -0.282496,0.177163 -0.644137,0.428259 -1.076415,0.747296 -0.306453,0.226185 -0.374211,0.261117 -0.517672,0.266914 -0.239046,0.0098 -0.417863,-0.201155 -0.363814,-0.428897 0.0152,-0.06445 0.285699,-0.427472 0.458794,-0.615968 0.10075,-0.109719 0.11331,-0.114186 -0.334371,0.118651 -0.168489,0.08763 -0.509044,0.268174 -0.75679,0.401243 -0.247721,0.133062 -0.519297,0.276577 -0.603446,0.318962 -0.08417,0.04238 -0.196078,0.09913 -0.248721,0.126154 -0.238423,0.122407 -0.681893,0.307977 -0.827628,0.346312 -0.180645,0.0475 -0.356015,0.04679 -0.482003,-0.0021 -0.103308,-0.03997 -0.275795,-0.243653 -0.287574,-0.339571 -0.0043,-0.03546 -0.01471,-0.06981 -0.02341,-0.07636 -0.0086,-0.0064 -0.104696,0.04889 -0.21368,0.123225 -0.34805,0.237373 -0.78177,0.468353 -1.001175,0.533237 -0.137844,0.04076 -0.325179,0.06735 -0.424813,0.0603 -0.254739,-0.01805 -0.480526,-0.266804 -0.465586,-0.513025 0.0026,-0.04421 -0.0026,-0.08095 -0.01192,-0.0816 -0.01592,-0.0011 -0.08966,0.03308 -0.383347,0.177568 -0.225604,0.111009 -0.353487,0.176404 -0.373798,0.19119 -0.04298,0.03124 -0.693931,0.32459 -0.819256,0.369169 -0.354964,0.126336 -0.598407,0.146044 -0.782607,0.06335 -0.12484,-0.05602 -0.228824,-0.190609 -0.25817,-0.334075 -0.04167,-0.203722 0.03896,-0.40837 0.313341,-0.794904 0.182218,-0.256734 0.175813,-0.245741 0.135106,-0.232369 -0.107815,0.03539 -0.595446,0.293356 -0.769295,0.406958 -0.346563,0.226452 -0.867761,0.612134 -1.216267,0.900009 -0.298818,0.246873 -0.366864,0.293907 -0.490116,0.338696 -0.129524,0.04713 -0.248688,0.04215 -0.345437,-0.0145 -0.09012,-0.05266 -0.124505,-0.100337 -0.153836,-0.213204 -0.04002,-0.153934 0.008,-0.242647 0.388031,-0.717074 0.221205,-0.276155 0.219609,-0.272964 0.104312,-0.210158 -0.05391,0.0294 -0.101164,0.05325 -0.105005,0.05298 -0.0039,-2.77e-4 -0.08161,0.03928 -0.172848,0.0879 -0.09128,0.04862 -0.169037,0.08818 -0.172878,0.08791 -0.0039,-2.76e-4 -0.05267,0.02472 -0.108519,0.05555 -0.05586,0.03085 -0.218569,0.108942 -0.361587,0.17362 -0.238735,0.107943 -0.410265,0.197801 -0.77299,0.404948 -0.15324,0.08748 -0.242679,0.131119 -0.880198,0.429213 -0.927578,0.433684 -1.545219,0.58371 -1.974955,0.479622 -0.27081,-0.0656 -0.480953,-0.271737 -0.534661,-0.524454 -0.01009,-0.04731 -0.02509,-0.08645 -0.03343,-0.08704 -0.0084,-7.09e-4 -0.102756,0.02993 -0.209792,0.06773 -0.409828,0.144948 -0.666677,0.190694 -0.955761,0.170231 -0.209563,-0.01482 -0.353187,-0.05937 -0.51986,-0.161221 l -0.112276,-0.06857 -0.181001,0.165181 c -0.403607,0.368244 -0.7156,0.610099 -1.084028,0.840289 -0.66179,0.413476 -1.104211,0.399504 -1.311158,-0.04144 -0.0387,-0.08245 -0.04249,-0.113928 -0.03278,-0.27272 0.01219,-0.199346 0.06663,-0.371176 0.175949,-0.555388 0.03357,-0.05655 0.05737,-0.107354 0.05288,-0.1129 -0.0045,-0.0055 -0.09139,0.02078 -0.193117,0.05846 -0.101728,0.03769 -0.215045,0.06637 -0.251824,0.06376 -0.03678,-0.0025 -0.185414,0.0278 -0.33031,0.06757 -0.385395,0.105726 -0.647651,0.157274 -0.892399,0.175419 -0.07949,0.0058 -0.09278,0.01589 -0.194069,0.142391 -0.139357,0.174393 -0.53623,0.553204 -0.73582,0.702389 -0.485871,0.363131 -0.885991,0.536652 -1.266816,0.549382 -0.202843,0.0068 -0.352271,-0.02851 -0.490234,-0.113073 -0.274997,-0.170288 -0.359324,-0.526096 -0.206047,-0.869415 0.02972,-0.06655 0.05136,-0.121211 0.0481,-0.121442 -0.0032,-2.3e-4 -0.10126,-7.09e-4 -0.214426,0.03099 -0.174931,0.04928 -0.134739,0.04245 -0.280757,0.115261 -0.01699,0.0086 -0.02781,0.01142 -0.07243,0.03959 -0.0186,0.01177 -0.04431,0.02876 -0.06645,0.0489 -0.05939,0.05395 -0.281849,0.236101 -0.725916,0.497186 -0.243247,0.143008 -0.506104,0.297828 -0.584129,0.344088 -0.297274,0.176117 -0.632736,0.300733 -0.875332,0.325147 -0.137812,0.01379 -0.317126,-0.02138 -0.419728,-0.08362 -0.0883,-0.05318 -0.204602,-0.386494 -0.182213,-0.503493 0.04622,-0.241543 1.01249,-1.087041 0.97806,-1.240194 l -0.804823,0.143278 -0.568996,0.482707 -0.422714,0.321186 -0.493907,0.347496 c -1.098012,0.772553 -1.250186,0.857883 -1.40131,0.786095 z m 7.037263,-1.264363 c 0.171175,-0.06762 0.360135,-0.17544 0.517824,-0.295453 0.137954,-0.104992 0.54183,-0.474955 0.543203,-0.497582 3.94e-4,-0.0065 -0.05906,-0.0453 -0.132105,-0.08635 -0.07305,-0.04104 -0.164205,-0.107676 -0.202563,-0.148153 -0.03837,-0.04043 -0.07582,-0.07397 -0.08322,-0.0745 -0.03407,-0.0025 -0.291574,0.218264 -0.419994,0.35995 -0.241228,0.266134 -0.405619,0.532098 -0.444158,0.718644 l -0.01794,0.08698 0.06131,-0.0088 c 0.03371,-0.0047 0.113672,-0.02947 0.177673,-0.05473 z m 1.423288,-1.432768 c -0.02403,-0.110726 -0.112449,-0.151713 -0.236766,-0.109765 l -0.05329,0.01794 0.0556,0.05771 c 0.03058,0.03181 0.09057,0.07453 0.133304,0.09508 0.08788,0.04225 0.119416,0.02333 0.101152,-0.06099 z m 8.109312,-0.840589 c 0.06394,-0.04398 0.113558,-0.08331 0.110267,-0.08731 -0.01091,-0.01362 -0.296757,0.137232 -0.361921,0.190836 l -0.06413,0.05276 0.09975,-0.03818 c 0.05488,-0.02092 0.152088,-0.07411 0.216028,-0.118105 z m 9.435652,-0.32314 c 0.418096,-0.234912 1.015101,-0.63325 1.170484,-0.781006 0.05772,-0.05487 0.01169,-0.05875 -0.160222,-0.01454 -0.201301,0.05309 -0.57501,0.22854 -0.800337,0.375694 -0.196442,0.128285 -0.518197,0.420057 -0.621617,0.563661 l -0.06592,0.09156 0.152324,-0.06965 c 0.08379,-0.03832 0.230199,-0.113403 0.325359,-0.16688 z m 13.781841,-2.084673 c 0.110198,-0.06179 0.199764,-0.122349 0.182775,-0.123551 -0.01405,-0.0011 -0.222705,0.113084 -0.272131,0.148887 -0.06641,0.04815 -0.01641,0.03397 0.08936,-0.02539 z"
       id="path1" /><path
       style="fill:#b08d57;fill-opacity:1;fill-rule:nonzero;stroke:#b08d57;stroke-width:0.23883;stroke-linejoin:miter;stroke-miterlimit:20;stroke-dasharray:none;stroke-opacity:1"
       d="m 7.0918851,28.007581 c 0.00272,0.01213 0.4321265,-0.101949 2.3011691,-0.361892 1.2719808,-0.176901 3.6763348,-0.453727 7.3546608,-0.682242 3.836771,-0.238355 8.726352,-0.404551 14.965488,-0.404551 6.239142,0 11.128723,0.166196 14.965496,0.404551 3.678327,0.228515 6.082681,0.505341 7.354661,0.682242 1.869041,0.259939 2.298427,0.374023 2.301168,0.361892 0.0026,-0.01213 -0.416704,-0.181276 -2.281123,-0.510174 -1.284911,-0.226668 -3.65082,-0.606007 -7.349684,-0.92644 -3.807106,-0.329809 -8.773532,-0.574991 -14.990511,-0.574991 -6.216987,0 -11.183412,0.245182 -14.990517,0.574991 -3.698865,0.320433 -6.064774,0.699769 -7.3496842,0.92644 -1.8644203,0.328898 -2.2838639,0.498044 -2.2811237,0.510174 z"
       id="path6" /><rect
       style="fill:#08121a;fill-opacity:1;stroke:#f4e3d7;stroke-width:0.12718867;stroke-dasharray:none;stroke-opacity:1"
       id="rect7"
       width="2.0166593"
       height="2.0166593"
       x="40.207924"
       y="-6.4732089"
       transform="matrix(0.67935817,0.73380684,-0.67935817,0.73380684,0,0)" /><rect
       style="fill:#b08d57;fill-opacity:1;stroke:#08121a;stroke-width:0.127189;stroke-dasharray:none;stroke-opacity:1"
       id="rect7-5-1"
       width="2.0166593"
       height="2.0166593"
       x="48.68124"
       y="36.269814"
       transform="matrix(0.67935817,0.73380684,-0.67935817,0.73380684,0,0)" /><rect
       style="fill:#b08d57;fill-opacity:1;stroke:#08121a;stroke-width:0.127189;stroke-dasharray:none;stroke-opacity:1"
       id="rect7-5-1-6"
       width="2.0166593"
       height="2.0166593"
       x="82.951118"
       y="1.9999318"
       transform="matrix(0.67935817,0.73380684,-0.67935817,0.73380684,0,0)" /><g
       id="g1"><text
         xml:space="preserve"
         style="font-style:normal;font-variant:normal;font-weight:normal;font-stretch:normal;font-size:3.77107px;line-height:0.1;font-family:Arial;-inkscape-font-specification:Arial;text-align:center;letter-spacing:0.927727px;word-spacing:0.231845px;writing-mode:lr-tb;direction:ltr;text-anchor:middle;fill:#000000;stroke:#000000;stroke-width:0.286574;stroke-linecap:square"
         x="31.68589"
         y="34.229233"
         id="text3"><tspan
           sodipodi:role="line"
           style="font-style:normal;font-variant:normal;font-weight:600;font-stretch:normal;font-size:3.77107px;line-height:0.1;font-family:'Nunito Sans';-inkscape-font-specification:'Nunito Sans Semi-Bold';font-variant-ligatures:normal;font-variant-caps:normal;font-variant-numeric:normal;font-variant-east-asian:normal;letter-spacing:0.927727px;word-spacing:0.231845px;writing-mode:lr-tb;stroke-width:0.286574"
           x="32.149754"
           y="34.229233"
           id="tspan19">CERTIFICATE OF</tspan></text><text
         xml:space="preserve"
         style="font-style:normal;font-variant:normal;font-weight:normal;font-stretch:normal;font-size:3.77107px;line-height:0.1;font-family:Arial;-inkscape-font-specification:Arial;text-align:center;letter-spacing:0.927727px;word-spacing:0.231845px;writing-mode:lr-tb;direction:ltr;text-anchor:middle;fill:#000000;stroke:#000000;stroke-width:0.286574;stroke-linecap:square"
         x="31.697582"
         y="39.665833"
         id="text3-3"><tspan
           sodipodi:role="line"
           style="font-style:normal;font-variant:normal;font-weight:600;font-stretch:normal;font-size:3.77107px;line-height:0.1;font-family:'Nunito Sans';-inkscape-font-specification:'Nunito Sans Semi-Bold';font-variant-ligatures:normal;font-variant-caps:normal;font-variant-numeric:normal;font-variant-east-asian:normal;letter-spacing:0.927727px;word-spacing:0.231845px;writing-mode:lr-tb;stroke-width:0.286574"
           x="32.161446"
           y="39.665833"
           id="tspan19-4">PROVENANCE</tspan></text></g><rect
       style="fill:#f4e3d7;fill-opacity:0;stroke:#08121a;stroke-width:0.338386;stroke-linecap:butt;stroke-linejoin:round;stroke-dasharray:none;stroke-dashoffset:0;stroke-opacity:1"
       id="rect2"
       width="59.351612"
       height="84.75161"
       x="2.074194"
       y="2.0741949" /><path
       style="fill:#b08d57;fill-opacity:0;fill-rule:nonzero;stroke:none;stroke-width:0.24776;stroke-linejoin:bevel;stroke-dasharray:none;stroke-opacity:1"
       d="m 22.319682,50.8 c 0.337914,0.03716 1.124322,0.173488 2.027483,0.222984 1.800165,0.09865 5.406621,0 8.109931,0 2.366968,0 5.524711,0.09865 7.100901,0 0.790791,-0.0495 1.479354,-0.18582 1.775225,-0.222984 -0.295871,-0.03716 -0.984434,-0.173488 -1.775225,-0.222984 -1.57619,-0.09865 -4.733933,0 -7.100899,0 -2.703312,0 -6.309768,-0.09865 -8.109933,0 -0.903161,0.0495 -1.689569,0.18582 -2.027483,0.222984 z"
       id="path22"
       sodipodi:nodetypes="ccc"
       inkscape:path-effect="#path-effect31"
       inkscape:original-d="m 22.319682,50.8 h 10.137415 8.876125"
       inkscape:linked-fill="path32" /><circle
       style="fill:#08121a;fill-opacity:1;stroke:#b08d57;stroke-width:0.381;stroke-linecap:square;stroke-dasharray:none;stroke-opacity:1"
       id="path2"
       cx="31.75"
       cy="63.817501"
       r="12.7" /><text
       xml:space="preserve"
       style="font-style:normal;font-variant:normal;font-weight:normal;font-stretch:normal;font-size:2.51712px;line-height:0.1;font-family:Arial;-inkscape-font-specification:Arial;text-align:center;letter-spacing:0.264583px;word-spacing:0.154752px;writing-mode:lr-tb;direction:ltr;text-anchor:middle;fill:#ffffff;stroke:#ffffff;stroke-width:0.191283;stroke-linecap:square;stroke-opacity:1"
       x="31.783979"
       y="61.111904"
       id="text3-2-7"><tspan
         sodipodi:role="line"
         style="font-style:normal;font-variant:normal;font-weight:normal;font-stretch:normal;font-size:2.51712px;line-height:0.1;font-family:'Nunito Sans';-inkscape-font-specification:'Nunito Sans';font-variant-ligatures:normal;font-variant-caps:normal;font-variant-numeric:normal;font-variant-east-asian:normal;letter-spacing:0.264583px;word-spacing:0.154752px;writing-mode:lr-tb;fill:#ffffff;stroke:#ffffff;stroke-width:0.191283;stroke-opacity:1"
         x="31.916271"
         y="61.111904"
         id="tspan30-4">COLLECTION</tspan></text><text
       xml:space="preserve"
       style="font-style:normal;font-variant:normal;font-weight:normal;font-stretch:normal;font-size:7.3407px;line-height:0.1;font-family:Arial;-inkscape-font-specification:Arial;text-align:center;letter-spacing:0.191165px;word-spacing:0.451306px;writing-mode:lr-tb;direction:ltr;text-anchor:middle;fill:#b08d57;fill-opacity:1;stroke:#000000;stroke-width:0.550552;stroke-linecap:square;stroke-dasharray:none;stroke-opacity:0"
       x="31.581165"
       y="67.871078"
       id="text3-2"><tspan
         sodipodi:role="line"
         style="font-style:normal;font-variant:normal;font-weight:800;font-stretch:normal;font-size:7.3407px;line-height:0.1;font-family:'Nunito Sans';-inkscape-font-specification:'Nunito Sans Ultra-Bold';font-variant-ligatures:normal;font-variant-caps:normal;font-variant-numeric:normal;font-variant-east-asian:normal;letter-spacing:0.191165px;word-spacing:0.451306px;writing-mode:lr-tb;fill:#b08d57;fill-opacity:1;stroke:#000000;stroke-width:0.550552;stroke-dasharray:none;stroke-opacity:0"
         x="31.676748"
         y="67.871078"
         id="tspan30">1968</tspan></text></g></svg>
