<?xml version="1.0" encoding="UTF-8" standalone="no"?>
<!-- Created with Inkscape (http://www.inkscape.org/) -->

<svg
   width="2.25in"
   height="1.1in"
   viewBox="0 0 57.150001 27.94"
   version="1.1"
   id="svg1"
   xml:space="preserve"
   inkscape:version="1.4.3 (0d15f75, 2025-12-25)"
   sodipodi:docname="Label2.svg"
   xmlns:inkscape="http://www.inkscape.org/namespaces/inkscape"
   xmlns:sodipodi="http://sodipodi.sourceforge.net/DTD/sodipodi-0.dtd"
   xmlns="http://www.w3.org/2000/svg"
   xmlns:svg="http://www.w3.org/2000/svg"><sodipodi:namedview
     id="namedview1"
     pagecolor="#ffffff"
     bordercolor="#000000"
     borderopacity="0.25"
     inkscape:showpageshadow="2"
     inkscape:pageopacity="0.0"
     inkscape:pagecheckerboard="0"
     inkscape:deskcolor="#d1d1d1"
     inkscape:document-units="in"
     inkscape:zoom="5.6568543"
     inkscape:cx="99.525279"
     inkscape:cy="51.530406"
     inkscape:window-width="3424"
     inkscape:window-height="1401"
     inkscape:window-x="-8"
     inkscape:window-y="-8"
     inkscape:window-maximized="0"
     inkscape:current-layer="layer1" /><defs
     id="defs1" /><g
     inkscape:label="Layer 1"
     inkscape:groupmode="layer"
     id="layer1"><g
       id="g2"
       transform="scale(25.4)"><rect
         style="fill:#f4e3d7;fill-opacity:1;stroke:#000000;stroke-width:0;stroke-linecap:square;stroke-dasharray:none"
         id="rect1"
         width="2.25"
         height="1.1"
         x="0"
         y="0" /></g><g
       id="g1"
       transform="matrix(1.2651887,0,0,1.2651887,-7.5900828,-1.744317)"><path
         style="fill:#08121a;stroke-width:0.141279"
         d="m 12.524311,15.076755 c -0.04781,-0.02463 -0.08125,-0.08839 -0.07742,-0.147668 0.0035,-0.05347 0.03576,-0.105821 0.200437,-0.324824 0.407861,-0.542401 0.510475,-0.679471 0.692239,-0.924713 0.111841,-0.15089 0.268408,-0.361799 0.347926,-0.468666 0.512891,-0.689285 0.810816,-1.094105 1.047776,-1.423704 0.153099,-0.212961 0.208367,-0.289366 0.304221,-0.42059 0.105145,-0.143939 0.106705,-0.139058 -0.03789,-0.118407 -0.04992,0.0072 -0.117922,0.016 -0.151129,0.01972 -0.03321,0.0038 -0.139359,0.01844 -0.235897,0.03279 -0.246976,0.03667 -0.301974,0.0367 -0.353247,1.65e-4 -0.05481,-0.03904 -0.07653,-0.09132 -0.06489,-0.156142 0.01091,-0.06073 0.03605,-0.09696 0.09396,-0.135427 0.03499,-0.02324 0.102211,-0.03711 0.373907,-0.07719 0.18219,-0.02688 0.418685,-0.06602 0.525545,-0.08699 0.106858,-0.02095 0.208013,-0.03947 0.224786,-0.04114 0.03259,-0.0032 0.02772,0.0031 0.247176,-0.304585 0.06747,-0.09448 0.170016,-0.236095 0.227896,-0.314716 0.05788,-0.07861 0.140946,-0.191837 0.184592,-0.2516063 0.330559,-0.4526923 0.846342,-1.1424181 1.04154,-1.3927895 0.03234,-0.041478 0.147827,-0.1936454 0.256628,-0.33816 0.258925,-0.3438941 0.300641,-0.3818557 0.411558,-0.3745872 0.04305,0.00282 0.06175,0.011332 0.09296,0.042647 0.08028,0.080378 0.07321,0.1422014 -0.03395,0.2968495 -0.07518,0.1084968 -0.273445,0.3861299 -0.372078,0.5210288 -0.0414,0.056612 -0.154364,0.2137467 -0.251026,0.3491487 -0.09666,0.1354167 -0.224414,0.3131414 -0.283893,0.394939 -0.157054,0.2160239 -0.298445,0.4135358 -0.422107,0.589665 -0.05974,0.08509 -0.180816,0.257328 -0.269055,0.382754 -0.08824,0.125421 -0.158874,0.229815 -0.156963,0.231995 0.01368,0.01562 0.660904,-0.170072 0.997052,-0.286024 0.416597,-0.143719 0.986563,-0.36924 1.287303,-0.5093553 C 19.068592,9.516756 19.482406,9.2915198 20.052776,8.9264314 20.881532,8.39598 21.503208,7.8804264 21.84272,7.4420589 22.136908,7.0621959 22.238323,6.7466648 22.145228,6.5008221 22.077178,6.3211386 21.850711,6.1734344 21.524,6.0956477 c -0.28021,-0.066715 -0.451992,-0.08553 -0.74513,-0.081624 -0.343685,0.00458 -0.596378,0.031048 -0.963669,0.1008972 -0.106818,0.020309 -0.226914,0.04206 -0.266881,0.04832 -0.08226,0.012903 -0.498505,0.1163341 -0.571688,0.1420783 -0.02642,0.00927 -0.127786,0.041016 -0.225249,0.070484 -0.6676,0.2018561 -1.819876,0.6806767 -2.485217,1.0326988 -0.05464,0.028913 -0.153014,0.080168 -0.218612,0.1139042 -0.199366,0.1025228 -0.71779,0.3970909 -0.849043,0.4824283 -0.04288,0.027871 -0.105922,0.067127 -0.14009,0.087209 -0.107633,0.063296 -0.356746,0.2285978 -0.517357,0.343302 -0.08507,0.060745 -0.180452,0.1263932 -0.211957,0.1458749 -0.03151,0.019482 -0.19285,0.154542 -0.358544,0.3001431 -0.315739,0.2774633 -0.434802,0.4072287 -0.43951,0.4790477 -0.0034,0.051686 -0.03669,0.099531 -0.09467,0.1359919 -0.08981,0.056478 -0.18633,0.050164 -0.252977,-0.016553 -0.139503,-0.1396548 -0.01555,-0.341668 0.474345,-0.7730896 0.979799,-0.8628092 2.440936,-1.7289948 3.866253,-2.2919623 0.292273,-0.1154364 0.745788,-0.2815697 0.765187,-0.2802986 0.0047,2.123e-4 0.03201,-0.00781 0.06064,-0.01823 C 18.557544,6.041256 18.7916,5.9700608 19.064716,5.8987893 19.6581,5.7439375 20.073964,5.6726745 20.5412,5.6457757 c 0.538463,-0.031001 1.107016,0.04318 1.42403,0.1857997 0.09366,0.042134 0.241322,0.1284453 0.305792,0.1787412 0.09125,0.071189 0.227072,0.2378081 0.273777,0.3358956 0.06731,0.1413292 0.08071,0.2220105 0.06866,0.4133299 -0.0109,0.1711481 -0.01689,0.1976818 -0.08702,0.3778788 -0.226159,0.5812162 -0.945112,1.2749848 -2.13537,2.0605443 -0.296214,0.1954937 -0.424889,0.2738725 -0.722888,0.4402838 -0.22355,0.1248377 -0.7435,0.397711 -0.756244,0.396877 -0.0028,-1.83e-4 -0.05429,0.02416 -0.114457,0.0541 -0.105248,0.05238 -0.636228,0.279095 -0.833395,0.355863 -0.05243,0.02039 -0.136867,0.05334 -0.187637,0.07318 -0.08734,0.03415 -0.149226,0.05767 -0.27656,0.105141 -0.03042,0.01144 -0.11316,0.03936 -0.183888,0.06228 -0.07073,0.02293 -0.150722,0.05006 -0.177765,0.06029 -0.216355,0.08187 -0.768256,0.234616 -1.165909,0.322693 l -0.225029,0.04986 -0.07364,0.09595 c -0.0405,0.05276 -0.11505,0.152566 -0.165669,0.221775 -0.344455,0.470937 -0.483089,0.655297 -1.254202,1.667891 -0.250503,0.32896 -1.206662,1.568358 -1.407745,1.824764 -0.128185,0.163445 -0.214445,0.20309 -0.321738,0.147836 z m 3.458255,-1.969621 c -0.02939,-0.01292 -0.07682,-0.0694 -0.0894,-0.106481 -0.0253,-0.07452 0.03239,-0.144896 0.191365,-0.233408 0.185846,-0.103478 0.667745,-0.416785 0.889066,-0.578014 0.158428,-0.115435 0.528964,-0.395682 0.638099,-0.482637 l 0.09801,-0.07809 0.0049,-0.07534 c 0.0038,-0.05792 0.01352,-0.09032 0.04204,-0.140022 0.140614,-0.245155 0.534586,-0.355029 0.668036,-0.18633 0.02091,0.02644 0.04014,0.06603 0.04273,0.08805 0.0049,0.0417 -0.02368,0.122412 -0.06082,0.171717 -0.01812,0.02407 -0.01857,0.02939 -0.004,0.04609 0.01465,0.01674 0.03525,0.01645 0.178165,-0.0026 0.08889,-0.01186 0.204501,-0.03229 0.256927,-0.04546 0.111357,-0.02799 0.158522,-0.02084 0.20037,0.03036 0.05349,0.06545 0.06355,0.124006 0.03287,0.191133 -0.0078,0.017 -0.131217,0.137388 -0.274305,0.267485 -0.280117,0.254705 -0.462706,0.436339 -0.507388,0.50473 l -0.02796,0.04281 0.08246,-0.02503 c 0.118681,-0.03598 0.271741,-0.09593 0.54571,-0.21373 0.132288,-0.05688 0.323668,-0.137473 0.42529,-0.179085 0.219604,-0.08994 0.236654,-0.09789 0.349539,-0.162897 0.132715,-0.07644 0.371916,-0.197629 0.604202,-0.306123 0.04081,-0.01906 0.09975,-0.05424 0.13099,-0.0782 0.03124,-0.02394 0.08801,-0.05918 0.12616,-0.07831 0.08649,-0.04337 0.275565,-0.120077 0.293147,-0.118925 0.0072,4.24e-4 0.0142,-0.01386 0.01552,-0.03194 0.0031,-0.04349 0.04531,-0.119422 0.0831,-0.149841 0.04272,-0.03442 0.22235,-0.102561 0.328218,-0.124547 0.23665,-0.04911 0.434875,-0.0053 0.566227,0.125207 0.09193,0.09132 0.140337,0.239314 0.117377,0.358872 -0.01179,0.06138 -0.01138,0.06287 0.01607,0.05885 0.01549,-0.0023 0.06079,-0.0081 0.100657,-0.01286 0.220828,-0.02659 0.498449,-0.09108 0.639051,-0.148464 0.239059,-0.09759 0.398433,-0.181581 0.50052,-0.263788 0.08947,-0.07204 0.197299,-0.135782 0.267575,-0.158162 0.06305,-0.02008 0.169929,-0.01496 0.22139,0.01067 0.05146,0.02556 0.104939,0.09867 0.111403,0.152259 0.0095,0.07907 -0.01519,0.122295 -0.231604,0.40503 -0.179834,0.234941 -0.342189,0.487014 -0.314829,0.488807 0.0043,2.13e-4 0.05825,-0.02329 0.119881,-0.05237 0.192528,-0.09086 0.577,-0.354558 0.768066,-0.526752 0.08895,-0.08018 0.09113,-0.08348 0.101628,-0.153789 0.02282,-0.152857 0.16444,-0.356103 0.306585,-0.440018 0.06757,-0.03989 0.181282,-0.07277 0.238626,-0.06902 0.156267,0.01025 0.239504,0.152638 0.183255,0.313509 -0.01722,0.04928 -0.119357,0.185846 -0.197442,0.264019 l -0.05346,0.05352 0.05632,0.02961 c 0.03584,0.01889 0.09004,0.03384 0.149038,0.04123 0.138209,0.01732 0.278527,-0.0181 0.593598,-0.149731 l 0.154064,-0.06438 0.06435,-0.0954 c 0.16162,-0.23958 0.464596,-0.47234 0.784531,-0.60271 0.35915,-0.146357 0.634015,-0.148455 0.769704,-0.0059 0.07481,0.0786 0.09455,0.13353 0.08226,0.228846 -0.0144,0.111794 -0.0539,0.175231 -0.175862,0.28262 -0.225838,0.198821 -0.579155,0.35157 -0.98065,0.423943 l -0.113105,0.02039 0.0047,0.03626 c 0.0075,0.05811 0.03187,0.07105 0.133919,0.07101 0.187203,1.9e-5 0.568908,-0.100146 0.957446,-0.251057 0.06765,-0.02627 0.142339,-0.05469 0.165966,-0.06314 0.02363,-0.0084 0.140366,-0.05669 0.259421,-0.107215 0.119065,-0.05052 0.251947,-0.102709 0.295297,-0.115986 0.07931,-0.02428 0.212111,-0.08641 0.407386,-0.190621 0.111982,-0.05976 0.308957,-0.157201 0.845089,-0.418109 0.300869,-0.146414 0.337222,-0.161125 0.402174,-0.162753 0.09343,-0.0023 0.123615,0.0087 0.177343,0.06386 0.07665,0.07895 0.07754,0.168319 0.0026,0.261424 -0.03014,0.03745 -0.02908,0.03706 0.09619,-0.03494 0.184331,-0.105899 0.539887,-0.283204 0.681422,-0.339783 0.276939,-0.110713 0.447226,-0.113527 0.551268,-0.0091 0.151335,0.151882 0.08898,0.333922 -0.254064,0.741519 -0.03098,0.03681 -0.05403,0.06959 -0.0512,0.07281 0.0064,0.0074 0.338606,-0.108843 0.544808,-0.19069 0.08584,-0.03409 0.241785,-0.09428 0.346568,-0.133825 0.248209,-0.09365 0.47221,-0.188323 0.542455,-0.229262 0.03084,-0.01797 0.116045,-0.08334 0.189329,-0.145217 0.166447,-0.14058 0.375777,-0.263934 0.610958,-0.360054 0.205405,-0.083946 0.351488,-0.1241716 0.512341,-0.1410706 0.202764,-0.021294 0.312878,-0.0017 0.395622,0.070442 0.03345,0.029165 0.046,0.032873 0.10365,0.030727 0.113563,-0.0042 0.186139,0.06063 0.187996,0.16802 0.0013,0.08289 -0.02544,0.128219 -0.199464,0.336815 -0.123983,0.148585 -0.208346,0.262215 -0.20995,0.28283 -0.0031,0.037 0.918822,-0.348648 1.384031,-0.579092 0.03954,-0.01959 0.07387,-0.03549 0.07628,-0.03533 0.0058,4.25e-4 0.222272,-0.105802 0.340908,-0.167158 0.05118,-0.02648 0.123648,-0.062238 0.161036,-0.079472 0.0374,-0.017232 0.0829,-0.040332 0.101112,-0.05131 0.01823,-0.010993 0.03578,-0.0198 0.03902,-0.019588 0.0033,2.122e-4 0.04134,-0.017848 0.08469,-0.040158 0.196525,-0.1011413 0.324709,-0.1012623 0.417481,-4.244e-4 0.05887,0.063992 0.07297,0.1296996 0.04321,0.201297 -0.02442,0.05879 -0.02579,0.05859 0.05938,0.0087 0.02865,-0.01674 0.05555,-0.03027 0.05975,-0.03 0.0041,2.12e-4 0.03209,-0.01405 0.06201,-0.031892 0.02991,-0.017805 0.05797,-0.032155 0.06234,-0.031869 0.0043,2.122e-4 0.02285,-0.00849 0.04109,-0.019588 0.08039,-0.04877 0.489881,-0.2253636 0.59782,-0.2578076 0.112958,-0.033944 0.277981,-0.029002 0.345639,0.010462 0.05557,0.032338 0.09977,0.1001248 0.114014,0.1748407 0.01017,0.053434 0.0084,0.067331 -0.01802,0.1314016 -0.03378,0.08229 -0.09141,0.1684053 -0.204723,0.3058893 -0.0438,0.05316 -0.09093,0.111671 -0.104707,0.130011 l -0.02504,0.03335 0.09242,-0.04288 c 0.09034,-0.04188 0.320504,-0.154567 0.631292,-0.309061 0.0852,-0.04235 0.17226,-0.08548 0.193501,-0.09585 0.0212,-0.0104 0.07621,-0.038471 0.122187,-0.062424 0.04598,-0.023972 0.0861,-0.043409 0.08917,-0.043208 0.02001,0.00127 0.142121,-0.084733 0.255581,-0.1801058 0.323314,-0.2717822 0.781789,-0.4591395 1.076336,-0.439834 0.154032,0.010102 0.241825,0.058717 0.29422,0.1629586 0.05715,0.1136983 0.01439,0.2503247 -0.118732,0.3794916 -0.112621,0.1092609 -0.264177,0.1557155 -0.361806,0.1109034 -0.08669,-0.03978 -0.120164,-0.13648 -0.06921,-0.1999419 0.01125,-0.013964 0.01702,-0.025521 0.01324,-0.02577 -0.01687,-0.00106 -0.119008,0.048821 -0.220398,0.1077159 -0.245363,0.1425303 -0.427865,0.3377942 -0.455443,0.4873622 -0.0164,0.08888 -6.36e-4,0.1038 0.117748,0.111461 0.229385,0.01492 0.655495,-0.110513 1.267226,-0.37276 0.411742,-0.1765123 0.408744,-0.1749397 0.432546,-0.2255178 0.0683,-0.1452255 0.317569,-0.3946144 0.522714,-0.5229919 0.131287,-0.082184 0.335913,-0.1752163 0.457253,-0.2079043 0.285004,-0.0768 0.475746,-0.054797 0.583389,0.067324 0.08589,0.097417 0.09105,0.2090588 0.01621,0.3502755 -0.102391,0.1931912 -0.555629,0.4545428 -1.010921,0.5828915 -0.159147,0.04485 -0.17552,0.05844 -0.129464,0.107342 0.02595,0.02755 0.12762,0.05832 0.210729,0.06377 0.269089,0.01764 1.115908,-0.123303 1.830244,-0.3046262 0.382459,-0.097077 0.85132,-0.243712 1.150364,-0.3597935 0.145361,-0.056429 0.169894,-0.059791 0.222584,-0.030407 0.05473,0.030513 0.0857,0.081959 0.08213,0.1364418 -0.0056,0.0849 -0.07572,0.1556836 -0.202204,0.2040822 -0.634298,0.2426447 -1.780029,0.5670437 -2.415221,0.6838337 -0.739886,0.136041 -1.117947,0.09072 -1.319835,-0.15819 -0.03285,-0.0405 -0.06532,-0.09301 -0.07217,-0.116655 -0.0069,-0.02368 -0.01553,-0.04324 -0.01927,-0.04348 -0.0037,-2.12e-4 -0.06795,0.02852 -0.142628,0.06392 -0.365417,0.1732 -0.828358,0.351125 -1.091432,0.419491 -0.359516,0.09341 -0.635608,0.08558 -0.819456,-0.02325 -0.118456,-0.07012 -0.21503,-0.23628 -0.207153,-0.356453 l 0.0031,-0.04669 -0.08969,0.04265 c -0.04935,0.02347 -0.198965,0.104725 -0.332502,0.180593 -0.413865,0.235115 -0.664064,0.345998 -0.836129,0.37056 -0.250815,0.03583 -0.426812,-0.125148 -0.367824,-0.336433 0.02253,-0.08084 0.07692,-0.173425 0.180823,-0.308027 0.04976,-0.06444 0.0719,-0.101213 0.05843,-0.09702 -0.04079,0.01267 -0.3571,0.179745 -0.526523,0.278132 -0.182619,0.106029 -0.416401,0.256305 -0.695846,0.447243 -0.198107,0.135368 -0.241909,0.156273 -0.334648,0.159743 -0.154531,0.0058 -0.270127,-0.120387 -0.235187,-0.256687 0.0098,-0.03857 0.184689,-0.255834 0.296586,-0.368645 0.06513,-0.06567 0.07325,-0.06834 -0.216153,0.07101 -0.108919,0.05244 -0.329071,0.160497 -0.489226,0.240136 -0.160138,0.07963 -0.335698,0.165527 -0.390096,0.190893 -0.05441,0.02536 -0.126754,0.05933 -0.160786,0.0755 -0.154128,0.07326 -0.440808,0.184319 -0.535018,0.207262 -0.116778,0.02842 -0.230145,0.028 -0.31159,-0.0013 -0.06678,-0.02392 -0.178287,-0.145822 -0.185902,-0.203227 -0.0028,-0.02122 -0.0095,-0.04178 -0.01513,-0.0457 -0.0056,-0.0038 -0.06768,0.02926 -0.138133,0.07375 -0.224997,0.142064 -0.505374,0.280301 -0.647208,0.319133 -0.08911,0.0244 -0.210211,0.04031 -0.27462,0.03609 -0.164675,-0.0108 -0.310635,-0.159677 -0.300977,-0.307035 0.0017,-0.02646 -0.0017,-0.04845 -0.0077,-0.04884 -0.01029,-6.37e-4 -0.05796,0.0198 -0.247814,0.10627 -0.145841,0.06644 -0.228511,0.105575 -0.241641,0.114424 -0.02778,0.0187 -0.44859,0.194261 -0.529607,0.220941 -0.229466,0.07561 -0.386839,0.0874 -0.505915,0.03791 -0.0807,-0.03353 -0.147923,-0.114076 -0.166893,-0.199937 -0.02694,-0.121924 0.02519,-0.244402 0.202559,-0.475735 0.117794,-0.153651 0.113654,-0.147072 0.08734,-0.13907 -0.0697,0.02118 -0.384924,0.175569 -0.497309,0.243558 -0.224035,0.135527 -0.560962,0.366351 -0.786253,0.538638 -0.19317,0.147749 -0.237159,0.175898 -0.316834,0.202703 -0.08373,0.02821 -0.160765,0.02522 -0.223308,-0.0087 -0.05826,-0.03151 -0.08049,-0.06005 -0.09945,-0.127598 -0.02587,-0.09213 0.0052,-0.145219 0.250842,-0.429155 0.142997,-0.165274 0.141966,-0.163364 0.06743,-0.125776 -0.03485,0.01759 -0.0654,0.03187 -0.06788,0.03171 -0.0025,-1.66e-4 -0.05275,0.02351 -0.111737,0.0526 -0.05901,0.0291 -0.109274,0.05278 -0.111757,0.05261 -0.0025,-1.66e-4 -0.03405,0.01479 -0.07015,0.03325 -0.03611,0.01846 -0.141293,0.0652 -0.233747,0.103909 -0.15433,0.0646 -0.265215,0.11838 -0.499698,0.242354 -0.09906,0.05236 -0.156879,0.07847 -0.569003,0.256875 -0.59963,0.259552 -0.998903,0.34934 -1.276705,0.287045 -0.175065,-0.03926 -0.310911,-0.162629 -0.345631,-0.313875 -0.0065,-0.02831 -0.01622,-0.05174 -0.02161,-0.05209 -0.0054,-4.24e-4 -0.06643,0.01791 -0.135619,0.04054 -0.264933,0.08675 -0.430973,0.114127 -0.61785,0.10188 -0.135472,-0.0089 -0.228318,-0.03553 -0.336063,-0.09649 l -0.07258,-0.04104 -0.117009,0.09886 c -0.260911,0.220387 -0.462598,0.365133 -0.700768,0.502896 -0.427812,0.247458 -0.713815,0.239097 -0.847595,-0.0248 -0.02502,-0.04935 -0.02747,-0.06818 -0.02119,-0.163218 0.0079,-0.119305 0.04307,-0.222142 0.113742,-0.33239 0.0217,-0.03384 0.03709,-0.06425 0.03418,-0.06757 -0.0029,-0.0033 -0.05908,0.01244 -0.12484,0.03498 -0.06576,0.02256 -0.139015,0.03972 -0.162791,0.03816 -0.02377,-0.0015 -0.119861,0.01664 -0.213528,0.04044 -0.249138,0.06328 -0.418673,0.09413 -0.57689,0.104985 -0.05139,0.0035 -0.05998,0.0095 -0.125456,0.08522 -0.09009,0.104371 -0.346644,0.331083 -0.475669,0.420367 -0.31409,0.217327 -0.572747,0.321176 -0.818931,0.328795 -0.131127,0.0041 -0.227725,-0.01706 -0.31691,-0.06767 -0.177772,-0.101914 -0.232285,-0.314859 -0.1332,-0.520329 0.01921,-0.03983 0.0332,-0.07254 0.0311,-0.07268 -0.0021,-1.38e-4 -0.06546,-4.24e-4 -0.138615,0.01855 -0.113084,0.02949 -0.0871,0.0254 -0.181495,0.06898 -0.01098,0.0052 -0.01798,0.0068 -0.04682,0.02369 -0.01202,0.007 -0.02864,0.01721 -0.04296,0.02926 -0.03839,0.03229 -0.182201,0.141302 -0.469267,0.297556 -0.157247,0.08559 -0.32717,0.178245 -0.37761,0.205931 -0.192172,0.105403 -0.40903,0.179983 -0.565856,0.194594 -0.08909,0.0083 -0.205005,-0.0128 -0.271332,-0.05004 -0.05708,-0.03183 -0.132265,-0.23131 -0.117792,-0.301332 0.02988,-0.144559 0.654522,-0.650573 0.632266,-0.742233 l -0.520277,0.08575 -0.367826,0.288892 -0.273263,0.192223 -0.319285,0.20797 c -0.709808,0.462359 -0.808181,0.513427 -0.905874,0.470464 z m 4.549225,-0.756698 c 0.110656,-0.04047 0.232809,-0.104997 0.334747,-0.176822 0.08918,-0.06284 0.350265,-0.284253 0.351152,-0.297794 2.55e-4,-0.0039 -0.03818,-0.02711 -0.0854,-0.05168 -0.04722,-0.02456 -0.10615,-0.06444 -0.130946,-0.08867 -0.0248,-0.02419 -0.04901,-0.04427 -0.0538,-0.04458 -0.02203,-0.0015 -0.188488,0.130627 -0.271504,0.215423 -0.155942,0.159277 -0.262212,0.318452 -0.287126,0.430096 l -0.0116,0.05206 0.03964,-0.0053 c 0.02179,-0.0028 0.07348,-0.01764 0.114857,-0.03275 z m 0.920082,-0.857484 c -0.01554,-0.06627 -0.07269,-0.0908 -0.153057,-0.06569 l -0.03445,0.01074 0.03594,0.03454 c 0.01977,0.01904 0.05855,0.0446 0.08617,0.0569 0.05681,0.02528 0.0772,0.01396 0.06539,-0.0365 z m 5.24225,-0.503078 c 0.04133,-0.02632 0.07341,-0.04986 0.07128,-0.05225 -0.0071,-0.0081 -0.191838,0.08213 -0.233962,0.114212 l -0.04145,0.03157 0.06449,-0.02285 c 0.03547,-0.01252 0.09832,-0.04436 0.139651,-0.07068 z m 6.099659,-0.193392 c 0.270278,-0.140591 0.65621,-0.378989 0.756658,-0.467419 0.03731,-0.03284 0.0076,-0.03516 -0.103576,-0.0087 -0.13013,0.03178 -0.371714,0.136778 -0.517377,0.224846 -0.126989,0.07678 -0.334987,0.251397 -0.401842,0.337341 l -0.04262,0.0548 0.09847,-0.04168 c 0.05416,-0.02293 0.148812,-0.06787 0.210328,-0.09987 z m 8.909245,-1.2476386 c 0.07124,-0.036981 0.129137,-0.073224 0.118155,-0.073943 -0.0091,-6.367e-4 -0.143967,0.067679 -0.175919,0.089106 -0.04293,0.028819 -0.01061,0.020331 0.05777,-0.015195 z"
         id="path1" /><path
         style="fill:#08121a;fill-opacity:1;fill-rule:nonzero;stroke:none;stroke-dasharray:none;stroke-opacity:1"
         d="M 96.756885 152.06979 C 79.328887 152.14757 65.242217 152.84739 54.324333 153.76426 C 43.047814 154.71125 35.858053 155.82898 31.938619 156.49174 C 26.39477 157.42918 25.050631 157.93108 25.001058 157.99656 C 25.000901 157.99681 25.000141 157.99787 25.000024 157.99811 L 25.000024 157.99862 C 24.999989 157.99883 25.00002 157.99998 25.000024 158.00017 C 25.011154 158.04579 26.324077 157.74997 32.019751 157.04933 C 35.886429 156.57367 43.232764 155.84153 54.425618 155.24014 C 65.515484 154.64428 79.410828 154.22555 97.009583 154.18284 L 95.826709 152.99996 L 96.756885 152.06979 z M 103.24331 152.06979 L 104.17349 152.99996 L 102.99061 154.18284 C 120.58937 154.22555 134.4842 154.64428 145.57406 155.24014 C 156.76692 155.84153 164.11325 156.57367 167.97993 157.04933 C 173.6756 157.74997 174.98904 158.04579 175.00017 158.00017 L 175.00017 157.99966 C 175.00018 157.99947 174.99969 157.99831 174.99965 157.99811 L 174.99965 157.99759 C 174.99954 157.99736 174.99878 157.99629 174.99862 157.99604 C 174.94905 157.93056 173.60542 157.42918 168.06158 156.49174 C 164.14214 155.82898 156.95238 154.71125 145.67586 153.76426 C 134.75811 152.8474 120.671 152.14759 103.24331 152.06979 z"
         transform="matrix(0.21221876,0,0,0.21221874,7.3390734,-16.91248)"
         id="path6" /><rect
         style="fill:#08121a;fill-opacity:1;stroke:#08121a;stroke-width:0;stroke-dasharray:none;stroke-opacity:1"
         id="rect7"
         width="1.1260614"
         height="1.1260614"
         x="30.633060"
         y="-9.758220"
         transform="rotate(44.999998)" /><text
         xml:space="preserve"
         style="font-style:normal;font-variant:normal;font-weight:normal;font-stretch:normal;font-size:0.867524px;line-height:0.1;font-family:Arial;-inkscape-font-specification:Arial;letter-spacing:0.369683px;word-spacing:0.0923862px;writing-mode:lr-tb;direction:ltr;fill:#000000;stroke:#000000;stroke-width:0.114195;stroke-linecap:square"
         x="24.176191"
         y="14.086061"
         id="text3"><tspan
           sodipodi:role="line"
           id="tspan3"
           style="font-style:normal;font-variant:normal;font-weight:200;font-stretch:normal;font-size:0.867524px;line-height:0.1;font-family:'Nunito Sans';-inkscape-font-specification:'Nunito Sans Ultra-Light';font-variant-ligatures:normal;font-variant-caps:normal;font-variant-numeric:normal;font-variant-east-asian:normal;letter-spacing:0.369683px;word-spacing:0.0923862px;writing-mode:lr-tb;stroke-width:0.114195"
           x="24.176191"
           y="14.086061">BY UTMOODY SPORTS CARDS</tspan></text></g><rect
       style="fill:#f4e3d7;fill-opacity:0;stroke:#08121a;stroke-width:0.1778;stroke-linecap:butt;stroke-linejoin:round;stroke-dasharray:none;stroke-dashoffset:0;stroke-opacity:1"
       id="rect2"
       width="54.63055"
       height="25.420551"
       x="1.2597251"
       y="1.2597251" /></g></svg>
