<?xml version="1.0" encoding="UTF-8" standalone="no"?>
<!-- Created with Inkscape (http://www.inkscape.org/) -->

<svg
   width="52.960686mm"
   height="52.985851mm"
   viewBox="0 0 52.960686 52.985851"
   version="1.1"
   id="svg1"
   xml:space="preserve"
   xmlns="http://www.w3.org/2000/svg"
   xmlns:svg="http://www.w3.org/2000/svg"><defs
     id="defs1" /><g
     id="layer1"
     transform="translate(-19.49999,-172.69648)"><path
       style="fill:#000000;stroke-width:0.665722"
       d="m 24.90075,217.16924 c -0.225305,-0.11606 -0.382844,-0.41649 -0.364804,-0.69583 0.01627,-0.25196 0.168488,-0.49864 0.944479,-1.53061 1.921892,-2.55586 2.405419,-3.20175 3.261915,-4.35736 0.527007,-0.71101 1.26477,-1.70484 1.63947,-2.20841 2.416799,-3.24799 3.820659,-5.15555 4.937245,-6.70866 0.721419,-1.0035 0.981848,-1.36353 1.433525,-1.98187 0.495454,-0.67826 0.502804,-0.65526 -0.178537,-0.55795 -0.235214,0.0338 -0.555665,0.0754 -0.712142,0.0929 -0.156497,0.0178 -0.656675,0.0869 -1.111571,0.1545 -1.16378,0.17281 -1.422941,0.17292 -1.664544,7.8e-4 -0.258254,-0.18395 -0.360643,-0.43032 -0.305794,-0.73576 0.0514,-0.28616 0.169853,-0.45689 0.442759,-0.63815 0.164854,-0.10949 0.48163,-0.17487 1.761894,-0.36374 0.858499,-0.12665 1.972893,-0.31112 2.47643,-0.4099 0.503526,-0.0987 0.980182,-0.18601 1.059217,-0.19386 0.153559,-0.0153 0.130637,0.0146 1.164721,-1.43524 0.317904,-0.44521 0.801138,-1.11251 1.073876,-1.48298 0.272739,-0.37041 0.664153,-0.90396 0.869816,-1.1856 1.557635,-2.13314 3.988068,-5.38321 4.90786,-6.56299 0.15241,-0.19545 0.69658,-0.91248 1.209264,-1.59345 1.220084,-1.62047 1.416656,-1.79935 1.939308,-1.7651 0.202867,0.0133 0.290964,0.0534 0.438057,0.20096 0.378302,0.37875 0.344997,0.67007 -0.159978,1.39879 -0.354265,0.51125 -1.288506,1.81949 -1.753276,2.45515 -0.195081,0.26676 -0.727381,1.0072 -1.182864,1.64523 -0.455486,0.6381 -1.057468,1.47556 -1.337737,1.861 -0.740059,1.01793 -1.40631,1.94863 -1.989019,2.77857 -0.281504,0.40095 -0.852026,1.21256 -1.267818,1.80358 -0.415796,0.591 -0.748634,1.08292 -0.739628,1.09319 0.06448,0.0736 3.114256,-0.8014 4.698224,-1.34778 1.963057,-0.67722 4.648804,-1.7399 6.065927,-2.40014 3.28116,-1.52869 5.231102,-2.59003 7.918752,-4.31037 3.905196,-2.49955 6.834606,-4.9289 8.434429,-6.99454 1.386251,-1.78996 1.864126,-3.27678 1.425453,-4.43522 -0.320651,-0.84669 -1.387797,-1.54269 -2.9273,-1.90923 -1.320383,-0.31437 -2.12984,-0.40303 -3.511141,-0.38462 -1.619482,0.0216 -2.810203,0.1463 -4.540921,0.47544 -0.503339,0.0957 -1.069247,0.19819 -1.257575,0.22769 -0.387636,0.0608 -2.349015,0.54818 -2.693863,0.66949 -0.124504,0.0437 -0.602143,0.19327 -1.0614,0.33213 -3.145809,0.95117 -8.575471,3.20743 -11.710638,4.8662 -0.257458,0.13624 -0.72102,0.37776 -1.030125,0.53673 -0.939436,0.4831 -3.38231,1.87114 -4.000792,2.27326 -0.202052,0.13133 -0.499115,0.31631 -0.660122,0.41094 -0.50718,0.29826 -1.681027,1.07718 -2.437848,1.61768 -0.400863,0.28624 -0.850308,0.59558 -0.998765,0.68738 -0.14846,0.0918 -0.908732,0.72822 -1.689501,1.41431 -1.487802,1.30744 -2.04884,1.91891 -2.071022,2.25733 -0.01596,0.24355 -0.17287,0.469 -0.446086,0.64081 -0.423173,0.26613 -0.878007,0.23638 -1.192057,-0.078 -0.657353,-0.65807 -0.07329,-1.60998 2.235171,-3.64289 4.616927,-4.06566 11.501982,-8.14723 18.218243,-10.8 1.377224,-0.54395 3.514244,-1.32679 3.605651,-1.3208 0.0222,0.001 0.150821,-0.0368 0.285734,-0.0859 0.978758,-0.35344 2.081658,-0.68892 3.368615,-1.02476 2.796097,-0.72968 4.755695,-1.06548 6.957367,-1.19223 2.537304,-0.14608 5.216391,0.20347 6.7102,0.87551 0.441323,0.19854 1.137136,0.60525 1.440929,0.84225 0.43,0.33545 1.06999,1.12058 1.290066,1.58278 0.317183,0.66596 0.380327,1.04614 0.323523,1.94766 -0.05136,0.80647 -0.07961,0.9315 -0.410041,1.78061 -1.065686,2.73876 -4.453481,6.00788 -10.062115,9.70953 -1.395799,0.92119 -2.002127,1.29052 -3.406337,2.07467 -1.053394,0.58825 -3.503461,1.87406 -3.563508,1.87013 -0.01309,-8.6e-4 -0.255803,0.11385 -0.539336,0.25495 -0.495944,0.24681 -2.997984,1.31513 -3.927055,1.67687 -0.247066,0.0961 -0.644938,0.25132 -0.884171,0.34485 -0.411574,0.1609 -0.703169,0.27174 -1.303184,0.49544 -0.143333,0.0539 -0.533224,0.18548 -0.866501,0.29346 -0.333275,0.10804 -0.710218,0.23588 -0.837648,0.28411 -1.019493,0.38577 -3.620116,1.10554 -5.493904,1.52057 l -1.060363,0.23493 -0.346981,0.45212 c -0.190835,0.24861 -0.542129,0.71891 -0.780651,1.04503 -1.623115,2.21911 -2.276375,3.08784 -5.909948,7.8593 -1.180404,1.5501 -5.685935,7.39029 -6.633464,8.59851 -0.604024,0.77017 -1.01049,0.95698 -1.516069,0.69662 z"
       id="path7" /><path
       style="fill:#000000;fill-opacity:1;fill-rule:nonzero;stroke:none;stroke-dasharray:none;stroke-opacity:1"
       d="M 96.756885 152.06979 C 79.328887 152.14757 65.242217 152.84739 54.324333 153.76426 C 43.047814 154.71125 35.858053 155.82898 31.938619 156.49174 C 26.39477 157.42918 25.050631 157.93108 25.001058 157.99656 C 25.000901 157.99681 25.000141 157.99787 25.000024 157.99811 L 25.000024 157.99862 C 24.999989 157.99883 25.00002 157.99998 25.000024 158.00017 C 25.011154 158.04579 26.324077 157.74997 32.019751 157.04933 C 35.886429 156.57367 43.232764 155.84153 54.425618 155.24014 C 65.515484 154.64428 79.410828 154.22555 97.009583 154.18284 L 95.826709 152.99996 L 96.756885 152.06979 z M 103.24331 152.06979 L 104.17349 152.99996 L 102.99061 154.18284 C 120.58937 154.22555 134.4842 154.64428 145.57406 155.24014 C 156.76692 155.84153 164.11325 156.57367 167.97993 157.04933 C 173.6756 157.74997 174.98904 158.04579 175.00017 158.00017 L 175.00017 157.99966 C 175.00018 157.99947 174.99969 157.99831 174.99965 157.99811 L 174.99965 157.99759 C 174.99954 157.99736 174.99878 157.99629 174.99862 157.99604 C 174.94905 157.93056 173.60542 157.42918 168.06158 156.49174 C 164.14214 155.82898 156.95238 154.71125 145.67586 153.76426 C 134.75811 152.8474 120.671 152.14759 103.24331 152.06979 z"
       id="path8"
       transform="matrix(0.3,0,0,0.3,11.999998,176.85751)" /><rect
       style="fill:#000000;fill-opacity:1;stroke:#000000;stroke-width:0;stroke-dasharray:none;stroke-opacity:1"
       id="rect8"
       width="5.3061352"
       height="5.3061352"
       x="184.777"
       y="125.247"
       transform="rotate(45)" /></g></svg>
