<?xml version="1.0" encoding="UTF-8" standalone="no"?>
<!-- Created with Inkscape (http://www.inkscape.org/) -->

<svg
   width="1080"
   height="1080"
   viewBox="0 0 285.75 285.75"
   version="1.1"
   id="svg1"
   xml:space="preserve"
   sodipodi:docname="Provenance P Mark - Navy.svg"
   inkscape:export-filename="Provenance P Mark - Navy2.jpg"
   inkscape:export-xdpi="96"
   inkscape:export-ydpi="96"
   inkscape:version="1.4.3 (0d15f75, 2025-12-25)"
   xmlns:inkscape="http://www.inkscape.org/namespaces/inkscape"
   xmlns:sodipodi="http://sodipodi.sourceforge.net/DTD/sodipodi-0.dtd"
   xmlns="http://www.w3.org/2000/svg"
   xmlns:svg="http://www.w3.org/2000/svg"><sodipodi:namedview
     id="namedview1"
     pagecolor="#f5f1e8"
     bordercolor="#000000"
     borderopacity="0.25"
     inkscape:showpageshadow="2"
     inkscape:pageopacity="0.0"
     inkscape:pagecheckerboard="0"
     inkscape:deskcolor="#d1d1d1"
     inkscape:document-units="mm"
     inkscape:export-bgcolor="#f5f1e8ff"
     inkscape:zoom="0.1813067"
     inkscape:cx="-967.97305"
     inkscape:cy="438.48352"
     inkscape:window-width="1536"
     inkscape:window-height="889"
     inkscape:window-x="-8"
     inkscape:window-y="-8"
     inkscape:window-maximized="1"
     inkscape:current-layer="svg1" /><defs
     id="defs1" /><g
     id="g2"
     transform="matrix(3.9025843,0,0,3.9025843,37.927967,38.897004)"><g
       id="g1"><path
         style="fill:#08121a;stroke-width:0.665722"
         d="m 3.2948165,46.182512 c -0.225305,-0.11606 -0.382844,-0.41649 -0.364804,-0.69583 0.01627,-0.25196 0.168488,-0.49864 0.944479,-1.53061 1.921892,-2.55586 2.405419,-3.20175 3.261915,-4.35736 0.527007,-0.71101 1.26477,-1.70484 1.63947,-2.20841 2.4167985,-3.24799 3.8206585,-5.15555 4.9372445,-6.70866 0.721419,-1.0035 0.981848,-1.36353 1.433525,-1.98187 0.495454,-0.67826 0.502804,-0.65526 -0.178537,-0.55795 -0.235214,0.0338 -0.555665,0.0754 -0.712142,0.0929 -0.156497,0.0178 -0.656675,0.0869 -1.111571,0.1545 -1.16378,0.17281 -1.422941,0.17292 -1.664543,7.8e-4 -0.258255,-0.18395 -0.360643,-0.43032 -0.305795,-0.73576 0.0514,-0.28616 0.169853,-0.45689 0.44276,-0.63815 0.164853,-0.10949 0.481629,-0.17487 1.761893,-0.36374 0.858499,-0.12665 1.972893,-0.31112 2.47643,-0.4099 0.503526,-0.0987 0.980182,-0.18601 1.059217,-0.19386 0.153559,-0.0153 0.130637,0.0146 1.164721,-1.43524 0.317904,-0.44521 0.801138,-1.11251 1.073876,-1.48298 0.272739,-0.37041 0.664153,-0.90396 0.869816,-1.1856 1.557635,-2.13314 3.988068,-5.38321 4.90786,-6.56299 0.15241,-0.19545 0.69658,-0.91248 1.209264,-1.59345 1.220084,-1.62047 1.416656,-1.79935 1.939308,-1.7651 0.202867,0.0133 0.290964,0.0534 0.438057,0.20096 0.378302,0.37875 0.344997,0.67007 -0.159978,1.39879 -0.354265,0.51125 -1.288506,1.81949 -1.753276,2.45515 -0.19508,0.26676 -0.727381,1.0072 -1.182863,1.64523 -0.455486,0.6381 -1.057468,1.47556 -1.337737,1.861 -0.740059,1.01793 -1.406311,1.94863 -1.989019,2.77857 -0.281505,0.40095 -0.852026,1.21256 -1.267818,1.80358 -0.415796,0.591 -0.748634,1.08292 -0.739628,1.09319 0.06448,0.0736 3.114256,-0.8014 4.698224,-1.34778 1.963057,-0.67722 4.648804,-1.7399 6.065927,-2.40014 3.28116,-1.52869 5.231102,-2.59003 7.918751,-4.31037 3.905197,-2.49955 6.834606,-4.9289 8.43443,-6.99454 1.38625,-1.7899596 1.864125,-3.2767796 1.425452,-4.4352196 -0.320651,-0.84669 -1.387797,-1.54269 -2.9273,-1.90923 -1.320383,-0.31437 -2.12984,-0.40303 -3.511141,-0.38462 -1.619482,0.0216 -2.810203,0.1463 -4.540921,0.47544 -0.503339,0.0957 -1.069247,0.19819 -1.257575,0.22769 -0.387636,0.0608 -2.349015,0.54818 -2.693863,0.66949 -0.124504,0.0437 -0.602143,0.19327 -1.0614,0.33213 -3.145809,0.95117 -8.575471,3.20743 -11.710638,4.8661996 -0.257458,0.13624 -0.72102,0.37776 -1.030125,0.53673 -0.939436,0.4831 -3.38231,1.87114 -4.000792,2.27326 -0.202052,0.13133 -0.499115,0.31631 -0.660122,0.41094 -0.50718,0.29826 -1.681027,1.07718 -2.437848,1.61768 -0.400863,0.28624 -0.850308,0.59558 -0.998765,0.68738 -0.14846,0.0918 -0.908732,0.72822 -1.689501,1.41431 -1.4878015,1.30744 -2.0488395,1.91891 -2.0710215,2.25733 -0.01596,0.24355 -0.17287,0.469 -0.446086,0.64081 -0.423173,0.26613 -0.878007,0.23638 -1.192057,-0.078 -0.657353,-0.65807 -0.07329,-1.60998 2.235171,-3.64289 4.6169265,-4.06566 11.5019815,-8.1472296 18.2182425,-10.7999996 1.377224,-0.54395 3.514244,-1.32679 3.605651,-1.3208 0.0222,10e-4 0.150821,-0.0368 0.285734,-0.0859 0.978758,-0.35344 2.081658,-0.68892 3.368615,-1.02476 2.796097,-0.72968 4.755695,-1.06548 6.957367,-1.19223 2.537304,-0.14608 5.216391,0.20347 6.7102,0.87551 0.441323,0.19854 1.137136,0.60525 1.440929,0.84225 0.43,0.33545 1.06999,1.12058 1.290066,1.58278 0.317183,0.66596 0.380327,1.04614 0.323523,1.94766 -0.05136,0.80647 -0.07961,0.9315 -0.410041,1.78061 -1.065686,2.7387596 -4.453481,6.0078796 -10.062115,9.7095296 -1.395799,0.92119 -2.002127,1.29052 -3.406337,2.07467 -1.053394,0.58825 -3.503461,1.87406 -3.563508,1.87013 -0.01309,-8.6e-4 -0.255803,0.11385 -0.539336,0.25495 -0.495944,0.24681 -2.997984,1.31513 -3.927055,1.67687 -0.247066,0.0961 -0.644938,0.25132 -0.884171,0.34485 -0.411574,0.1609 -0.703169,0.27174 -1.303184,0.49544 -0.143333,0.0539 -0.533224,0.18548 -0.866501,0.29346 -0.333275,0.10804 -0.710218,0.23588 -0.837648,0.28411 -1.019493,0.38577 -3.620116,1.10554 -5.493904,1.52057 l -1.060363,0.23493 -0.346981,0.45212 c -0.190835,0.24861 -0.542129,0.71891 -0.780651,1.04503 -1.623115,2.21911 -2.276375,3.08784 -5.909948,7.8593 -1.180404,1.5501 -5.6859345,7.39029 -6.6334635,8.59851 -0.604024,0.77017 -1.01049,0.95698 -1.516069,0.69662 z"
         id="path7" /><path
         id="path8"
         style="fill:#08121a;fill-opacity:1;fill-rule:nonzero;stroke:none;stroke-width:0.3;stroke-dasharray:none;stroke-opacity:1"
         d="m 22.079789,47.906637 c -4.099986,0.06786 -7.50476,0.252591 -10.244336,0.482657 -3.3829553,0.284097 -5.5400387,0.61921 -6.7158689,0.818038 -1.6371679,0.276838 -2.0536972,0.427771 -2.0804931,0.451136 l -5.168e-4,5.16e-4 h -5.167e-4 v 5.17e-4 5.17e-4 c 0.00334,0.01368 0.3971124,-0.07506 2.1058146,-0.285254 1.1600034,-0.142698 3.3642139,-0.362186 6.7220699,-0.542603 2.777816,-0.149252 6.142462,-0.261357 10.250537,-0.30179 l -0.330212,-0.330212 z m 6.916891,0 0.293522,0.293522 -0.329696,0.329695 c 4.107916,0.04044 7.472268,0.153058 10.250021,0.302307 3.357858,0.180417 5.561549,0.399905 6.721553,0.542603 1.708701,0.210192 2.102992,0.29894 2.106331,0.285254 v -5.17e-4 h -5.16e-4 v -5.17e-4 -5.16e-4 l -5.17e-4,-5.17e-4 -5.17e-4,-5.17e-4 C 48.010062,49.634069 47.59405,49.48417 45.956885,49.207332 44.781053,49.008504 42.623972,48.672875 39.241016,48.388778 36.501418,48.158709 33.096752,47.974499 28.99668,47.906637 Z" /><rect
         style="fill:#08121a;fill-opacity:1;stroke:#08121a;stroke-width:0;stroke-dasharray:none;stroke-opacity:1"
         id="rect8-7"
         width="4.7755165"
         height="4.7755165"
         x="49.753147"
         y="13.636705"
         transform="rotate(45)" /></g></g></svg>
